<svg width="181" height="46" viewBox="0 0 181 46" fill="none" xmlns="http://www.w3.org/2000/svg">
<g filter="url(#filter0_dd_529_9730)">
<rect x="3" y="3" width="175" height="40" rx="2" fill="white"/>
<path fill-rule="evenodd" clip-rule="evenodd" d="M28.64 23.2047C28.64 22.5665 28.5827 21.9529 28.4764 21.3638H20V24.8451H24.8436C24.635 25.9701 24.0009 26.9233 23.0477 27.5615V29.8197H25.9564C27.6582 28.2529 28.64 25.9456 28.64 23.2047Z" fill="#4285F4"/>
<path fill-rule="evenodd" clip-rule="evenodd" d="M19.9998 32C22.4298 32 24.467 31.1941 25.9561 29.8195L23.0475 27.5613C22.2416 28.1013 21.2107 28.4204 19.9998 28.4204C17.6557 28.4204 15.6716 26.8372 14.9638 24.71H11.957V27.0418C13.4379 29.9831 16.4816 32 19.9998 32Z" fill="#34A853"/>
<path fill-rule="evenodd" clip-rule="evenodd" d="M14.9641 24.7098C14.7841 24.1698 14.6818 23.593 14.6818 22.9998C14.6818 22.4066 14.7841 21.8298 14.9641 21.2898V18.958H11.9573C11.3477 20.173 11 21.5476 11 22.9998C11 24.4521 11.3477 25.8266 11.9573 27.0416L14.9641 24.7098Z" fill="#FBBC05"/>
<path fill-rule="evenodd" clip-rule="evenodd" d="M19.9998 17.5795C21.3211 17.5795 22.5075 18.0336 23.4402 18.9255L26.0216 16.3441C24.4629 14.8918 22.4257 14 19.9998 14C16.4816 14 13.4379 16.0168 11.957 18.9582L14.9638 21.29C15.6716 19.1627 17.6557 17.5795 19.9998 17.5795Z" fill="#EA4335"/>
<path d="M60.5264 25.6396V27H55.2422V25.6396H60.5264ZM55.7275 17.0469V27H54.0117V17.0469H55.7275ZM59.8359 21.2031V22.543H55.2422V21.2031H59.8359ZM60.4922 17.0469V18.4141H55.2422V17.0469H60.4922ZM63.3975 21.1826V27H61.75V19.6035H63.3018L63.3975 21.1826ZM63.1035 23.0283L62.5703 23.0215C62.5749 22.4974 62.6478 22.0166 62.7891 21.5791C62.9349 21.1416 63.1354 20.7656 63.3906 20.4512C63.6504 20.1367 63.9603 19.8952 64.3203 19.7266C64.6803 19.5534 65.0814 19.4668 65.5234 19.4668C65.8789 19.4668 66.2002 19.5169 66.4873 19.6172C66.779 19.7129 67.0273 19.8701 67.2324 20.0889C67.4421 20.3076 67.6016 20.5924 67.7109 20.9434C67.8203 21.2897 67.875 21.7158 67.875 22.2217V27H66.2207V22.2148C66.2207 21.8594 66.1683 21.5791 66.0635 21.374C65.9632 21.1644 65.8151 21.0163 65.6191 20.9297C65.4277 20.8385 65.1885 20.793 64.9014 20.793C64.6188 20.793 64.3659 20.8522 64.1426 20.9707C63.9193 21.0892 63.7301 21.251 63.5752 21.4561C63.4248 21.6611 63.3086 21.8981 63.2266 22.167C63.1445 22.4359 63.1035 22.723 63.1035 23.0283ZM72.9473 19.6035V20.8066H68.7773V19.6035H72.9473ZM69.9805 17.792H71.6279V24.9561C71.6279 25.1839 71.6598 25.3594 71.7236 25.4824C71.792 25.6009 71.8854 25.6807 72.0039 25.7217C72.1224 25.7627 72.2614 25.7832 72.4209 25.7832C72.5348 25.7832 72.6442 25.7764 72.749 25.7627C72.8538 25.749 72.9382 25.7354 73.002 25.7217L73.0088 26.9795C72.8721 27.0205 72.7126 27.057 72.5303 27.0889C72.3525 27.1208 72.1475 27.1367 71.915 27.1367C71.5368 27.1367 71.2018 27.0706 70.9102 26.9385C70.6185 26.8018 70.3906 26.5807 70.2266 26.2754C70.0625 25.9701 69.9805 25.5645 69.9805 25.0586V17.792ZM75.873 21.0117V27H74.2256V19.6035H75.7979L75.873 21.0117ZM78.1357 19.5557L78.1221 21.0869C78.0218 21.0687 77.9124 21.055 77.7939 21.0459C77.68 21.0368 77.5661 21.0322 77.4521 21.0322C77.1696 21.0322 76.9212 21.0732 76.707 21.1553C76.4928 21.2327 76.3128 21.3467 76.167 21.4971C76.0257 21.6429 75.9163 21.8206 75.8389 22.0303C75.7614 22.2399 75.7158 22.4746 75.7021 22.7344L75.3262 22.7617C75.3262 22.2969 75.3717 21.8662 75.4629 21.4697C75.554 21.0732 75.6908 20.7246 75.873 20.4238C76.0599 20.123 76.2923 19.8883 76.5703 19.7197C76.8529 19.5511 77.1787 19.4668 77.5479 19.4668C77.6481 19.4668 77.7552 19.4759 77.8691 19.4941C77.9876 19.5124 78.0765 19.5329 78.1357 19.5557ZM83.0918 25.5166V21.9893C83.0918 21.7249 83.0439 21.4971 82.9482 21.3057C82.8525 21.1143 82.7067 20.9661 82.5107 20.8613C82.3193 20.7565 82.0778 20.7041 81.7861 20.7041C81.5173 20.7041 81.2848 20.7497 81.0889 20.8408C80.8929 20.932 80.7402 21.055 80.6309 21.21C80.5215 21.3649 80.4668 21.5404 80.4668 21.7363H78.8262C78.8262 21.4447 78.8968 21.1621 79.0381 20.8887C79.1794 20.6152 79.3844 20.3714 79.6533 20.1572C79.9222 19.943 80.2435 19.7744 80.6172 19.6514C80.9909 19.5283 81.4102 19.4668 81.875 19.4668C82.431 19.4668 82.9232 19.5602 83.3516 19.7471C83.7845 19.9339 84.124 20.2165 84.3701 20.5947C84.6208 20.9684 84.7461 21.4378 84.7461 22.0029V25.291C84.7461 25.6283 84.7689 25.9313 84.8145 26.2002C84.8646 26.4645 84.9352 26.6947 85.0264 26.8906V27H83.3379C83.2604 26.8223 83.1989 26.5967 83.1533 26.3232C83.1123 26.0452 83.0918 25.7764 83.0918 25.5166ZM83.3311 22.502L83.3447 23.5205H82.1621C81.8568 23.5205 81.5879 23.5501 81.3555 23.6094C81.123 23.6641 80.9294 23.7461 80.7744 23.8555C80.6195 23.9648 80.5033 24.097 80.4258 24.252C80.3483 24.4069 80.3096 24.5824 80.3096 24.7783C80.3096 24.9743 80.3551 25.1543 80.4463 25.3184C80.5374 25.4779 80.6696 25.6032 80.8428 25.6943C81.0205 25.7855 81.2347 25.8311 81.4854 25.8311C81.8226 25.8311 82.1165 25.7627 82.3672 25.626C82.6224 25.4847 82.8229 25.3138 82.9688 25.1133C83.1146 24.9082 83.1921 24.7145 83.2012 24.5322L83.7344 25.2637C83.6797 25.4505 83.5863 25.651 83.4541 25.8652C83.3219 26.0794 83.1488 26.2845 82.9346 26.4805C82.7249 26.6719 82.472 26.8291 82.1758 26.9521C81.8841 27.0752 81.5469 27.1367 81.1641 27.1367C80.681 27.1367 80.2503 27.041 79.8721 26.8496C79.4938 26.6536 79.1976 26.3916 78.9834 26.0635C78.7692 25.7308 78.6621 25.3548 78.6621 24.9355C78.6621 24.5436 78.735 24.1973 78.8809 23.8965C79.0312 23.5911 79.25 23.3359 79.5371 23.1309C79.8288 22.9258 80.1842 22.7708 80.6035 22.666C81.0228 22.5566 81.5013 22.502 82.0391 22.502H83.3311ZM88.123 21.0117V27H86.4756V19.6035H88.0479L88.123 21.0117ZM90.3857 19.5557L90.3721 21.0869C90.2718 21.0687 90.1624 21.055 90.0439 21.0459C89.93 21.0368 89.8161 21.0322 89.7021 21.0322C89.4196 21.0322 89.1712 21.0732 88.957 21.1553C88.7428 21.2327 88.5628 21.3467 88.417 21.4971C88.2757 21.6429 88.1663 21.8206 88.0889 22.0303C88.0114 22.2399 87.9658 22.4746 87.9521 22.7344L87.5762 22.7617C87.5762 22.2969 87.6217 21.8662 87.7129 21.4697C87.804 21.0732 87.9408 20.7246 88.123 20.4238C88.3099 20.123 88.5423 19.8883 88.8203 19.7197C89.1029 19.5511 89.4287 19.4668 89.7979 19.4668C89.8981 19.4668 90.0052 19.4759 90.1191 19.4941C90.2376 19.5124 90.3265 19.5329 90.3857 19.5557ZM97.9258 25.8242C98.1947 25.8242 98.4362 25.7718 98.6504 25.667C98.8691 25.5576 99.0446 25.4072 99.1768 25.2158C99.3135 25.0244 99.3887 24.8034 99.4023 24.5527H100.954C100.945 25.0312 100.804 25.4665 100.53 25.8584C100.257 26.2503 99.8945 26.5625 99.4434 26.7949C98.9922 27.0228 98.4932 27.1367 97.9463 27.1367C97.3812 27.1367 96.889 27.041 96.4697 26.8496C96.0505 26.6536 95.7018 26.3848 95.4238 26.043C95.1458 25.7012 94.9362 25.307 94.7949 24.8604C94.6582 24.4137 94.5898 23.9352 94.5898 23.4248V23.1855C94.5898 22.6751 94.6582 22.1966 94.7949 21.75C94.9362 21.2988 95.1458 20.9023 95.4238 20.5605C95.7018 20.2188 96.0505 19.9521 96.4697 19.7607C96.889 19.5648 97.3789 19.4668 97.9395 19.4668C98.5319 19.4668 99.0514 19.5853 99.498 19.8223C99.9447 20.0547 100.296 20.3805 100.551 20.7998C100.811 21.2145 100.945 21.6976 100.954 22.249H99.4023C99.3887 21.9756 99.3203 21.7295 99.1973 21.5107C99.0788 21.2874 98.9102 21.1097 98.6914 20.9775C98.4772 20.8454 98.2197 20.7793 97.9189 20.7793C97.5863 20.7793 97.3105 20.8477 97.0918 20.9844C96.873 21.1165 96.7021 21.2988 96.5791 21.5312C96.4561 21.7591 96.3672 22.0166 96.3125 22.3037C96.2624 22.5863 96.2373 22.8802 96.2373 23.1855V23.4248C96.2373 23.7301 96.2624 24.0264 96.3125 24.3135C96.3626 24.6006 96.4492 24.8581 96.5723 25.0859C96.6999 25.3092 96.873 25.4893 97.0918 25.626C97.3105 25.7581 97.5885 25.8242 97.9258 25.8242ZM101.904 23.3838V23.2266C101.904 22.6934 101.982 22.1989 102.137 21.7432C102.292 21.2829 102.515 20.8841 102.807 20.5469C103.103 20.2051 103.463 19.9408 103.887 19.7539C104.315 19.5625 104.798 19.4668 105.336 19.4668C105.878 19.4668 106.361 19.5625 106.785 19.7539C107.214 19.9408 107.576 20.2051 107.872 20.5469C108.168 20.8841 108.394 21.2829 108.549 21.7432C108.704 22.1989 108.781 22.6934 108.781 23.2266V23.3838C108.781 23.917 108.704 24.4115 108.549 24.8672C108.394 25.3229 108.168 25.7217 107.872 26.0635C107.576 26.4007 107.216 26.665 106.792 26.8564C106.368 27.0433 105.887 27.1367 105.35 27.1367C104.807 27.1367 104.322 27.0433 103.894 26.8564C103.47 26.665 103.11 26.4007 102.813 26.0635C102.517 25.7217 102.292 25.3229 102.137 24.8672C101.982 24.4115 101.904 23.917 101.904 23.3838ZM103.552 23.2266V23.3838C103.552 23.7165 103.586 24.0309 103.654 24.3271C103.723 24.6234 103.83 24.8831 103.976 25.1064C104.121 25.3298 104.308 25.5052 104.536 25.6328C104.764 25.7604 105.035 25.8242 105.35 25.8242C105.655 25.8242 105.919 25.7604 106.143 25.6328C106.37 25.5052 106.557 25.3298 106.703 25.1064C106.849 24.8831 106.956 24.6234 107.024 24.3271C107.097 24.0309 107.134 23.7165 107.134 23.3838V23.2266C107.134 22.8984 107.097 22.5885 107.024 22.2969C106.956 22.0007 106.847 21.7386 106.696 21.5107C106.55 21.2829 106.364 21.1051 106.136 20.9775C105.912 20.8454 105.646 20.7793 105.336 20.7793C105.026 20.7793 104.757 20.8454 104.529 20.9775C104.306 21.1051 104.121 21.2829 103.976 21.5107C103.83 21.7386 103.723 22.0007 103.654 22.2969C103.586 22.5885 103.552 22.8984 103.552 23.2266ZM111.81 21.1074V27H110.162V19.6035H111.714L111.81 21.1074ZM111.543 23.0283L110.982 23.0215C110.982 22.5111 111.046 22.0394 111.174 21.6064C111.301 21.1735 111.488 20.7975 111.734 20.4785C111.98 20.1549 112.286 19.9066 112.65 19.7334C113.02 19.5557 113.446 19.4668 113.929 19.4668C114.266 19.4668 114.574 19.5169 114.852 19.6172C115.134 19.7129 115.378 19.8656 115.583 20.0752C115.793 20.2848 115.952 20.5537 116.062 20.8818C116.175 21.21 116.232 21.6064 116.232 22.0713V27H114.585V22.2148C114.585 21.8548 114.53 21.5723 114.421 21.3672C114.316 21.1621 114.163 21.0163 113.963 20.9297C113.767 20.8385 113.532 20.793 113.259 20.793C112.949 20.793 112.685 20.8522 112.466 20.9707C112.252 21.0892 112.076 21.251 111.939 21.4561C111.803 21.6611 111.702 21.8981 111.639 22.167C111.575 22.4359 111.543 22.723 111.543 23.0283ZM116.13 22.5908L115.357 22.7617C115.357 22.3151 115.419 21.8936 115.542 21.4971C115.67 21.096 115.854 20.7451 116.096 20.4443C116.342 20.139 116.645 19.8997 117.005 19.7266C117.365 19.5534 117.777 19.4668 118.242 19.4668C118.62 19.4668 118.958 19.5192 119.254 19.624C119.555 19.7243 119.81 19.8838 120.02 20.1025C120.229 20.3213 120.389 20.6061 120.498 20.957C120.607 21.3034 120.662 21.7227 120.662 22.2148V27H119.008V22.208C119.008 21.8343 118.953 21.5449 118.844 21.3398C118.739 21.1348 118.589 20.9935 118.393 20.916C118.197 20.834 117.962 20.793 117.688 20.793C117.433 20.793 117.208 20.8408 117.012 20.9365C116.82 21.0277 116.659 21.1576 116.526 21.3262C116.394 21.4902 116.294 21.6794 116.226 21.8936C116.162 22.1077 116.13 22.3402 116.13 22.5908ZM133.65 21.9141V25.7148C133.509 25.9017 133.288 26.1068 132.987 26.3301C132.691 26.5488 132.297 26.738 131.805 26.8975C131.312 27.057 130.7 27.1367 129.966 27.1367C129.341 27.1367 128.77 27.0319 128.25 26.8223C127.73 26.6081 127.282 26.2959 126.903 25.8857C126.53 25.4756 126.24 24.9766 126.035 24.3887C125.83 23.7962 125.728 23.1217 125.728 22.3652V21.6748C125.728 20.9229 125.821 20.2529 126.008 19.665C126.199 19.0726 126.473 18.5713 126.828 18.1611C127.184 17.751 127.612 17.4411 128.113 17.2314C128.619 17.0173 129.191 16.9102 129.829 16.9102C130.645 16.9102 131.319 17.0469 131.853 17.3203C132.39 17.5892 132.805 17.9629 133.097 18.4414C133.388 18.9199 133.573 19.4668 133.65 20.082H131.969C131.914 19.7357 131.807 19.4258 131.647 19.1523C131.493 18.8789 131.269 18.6647 130.978 18.5098C130.69 18.3503 130.317 18.2705 129.856 18.2705C129.46 18.2705 129.111 18.3457 128.811 18.4961C128.51 18.6465 128.259 18.8675 128.059 19.1592C127.863 19.4508 127.715 19.8063 127.614 20.2256C127.514 20.6449 127.464 21.1234 127.464 21.6611V22.3652C127.464 22.9121 127.521 23.3975 127.635 23.8213C127.753 24.2451 127.922 24.6029 128.141 24.8945C128.364 25.1862 128.635 25.4072 128.954 25.5576C129.273 25.7035 129.633 25.7764 130.034 25.7764C130.426 25.7764 130.747 25.7445 130.998 25.6807C131.249 25.6123 131.447 25.5326 131.593 25.4414C131.743 25.3457 131.859 25.2546 131.941 25.168V23.1924H129.87V21.9141H133.65ZM135.072 23.3838V23.2266C135.072 22.6934 135.15 22.1989 135.305 21.7432C135.46 21.2829 135.683 20.8841 135.975 20.5469C136.271 20.2051 136.631 19.9408 137.055 19.7539C137.483 19.5625 137.966 19.4668 138.504 19.4668C139.046 19.4668 139.529 19.5625 139.953 19.7539C140.382 19.9408 140.744 20.2051 141.04 20.5469C141.336 20.8841 141.562 21.2829 141.717 21.7432C141.872 22.1989 141.949 22.6934 141.949 23.2266V23.3838C141.949 23.917 141.872 24.4115 141.717 24.8672C141.562 25.3229 141.336 25.7217 141.04 26.0635C140.744 26.4007 140.384 26.665 139.96 26.8564C139.536 27.0433 139.055 27.1367 138.518 27.1367C137.975 27.1367 137.49 27.0433 137.062 26.8564C136.638 26.665 136.278 26.4007 135.981 26.0635C135.685 25.7217 135.46 25.3229 135.305 24.8672C135.15 24.4115 135.072 23.917 135.072 23.3838ZM136.72 23.2266V23.3838C136.72 23.7165 136.754 24.0309 136.822 24.3271C136.891 24.6234 136.998 24.8831 137.144 25.1064C137.289 25.3298 137.476 25.5052 137.704 25.6328C137.932 25.7604 138.203 25.8242 138.518 25.8242C138.823 25.8242 139.087 25.7604 139.311 25.6328C139.538 25.5052 139.725 25.3298 139.871 25.1064C140.017 24.8831 140.124 24.6234 140.192 24.3271C140.265 24.0309 140.302 23.7165 140.302 23.3838V23.2266C140.302 22.8984 140.265 22.5885 140.192 22.2969C140.124 22.0007 140.015 21.7386 139.864 21.5107C139.718 21.2829 139.532 21.1051 139.304 20.9775C139.08 20.8454 138.814 20.7793 138.504 20.7793C138.194 20.7793 137.925 20.8454 137.697 20.9775C137.474 21.1051 137.289 21.2829 137.144 21.5107C136.998 21.7386 136.891 22.0007 136.822 22.2969C136.754 22.5885 136.72 22.8984 136.72 23.2266ZM143.016 23.3838V23.2266C143.016 22.6934 143.093 22.1989 143.248 21.7432C143.403 21.2829 143.626 20.8841 143.918 20.5469C144.214 20.2051 144.574 19.9408 144.998 19.7539C145.426 19.5625 145.91 19.4668 146.447 19.4668C146.99 19.4668 147.473 19.5625 147.896 19.7539C148.325 19.9408 148.687 20.2051 148.983 20.5469C149.28 20.8841 149.505 21.2829 149.66 21.7432C149.815 22.1989 149.893 22.6934 149.893 23.2266V23.3838C149.893 23.917 149.815 24.4115 149.66 24.8672C149.505 25.3229 149.28 25.7217 148.983 26.0635C148.687 26.4007 148.327 26.665 147.903 26.8564C147.479 27.0433 146.999 27.1367 146.461 27.1367C145.919 27.1367 145.433 27.0433 145.005 26.8564C144.581 26.665 144.221 26.4007 143.925 26.0635C143.629 25.7217 143.403 25.3229 143.248 24.8672C143.093 24.4115 143.016 23.917 143.016 23.3838ZM144.663 23.2266V23.3838C144.663 23.7165 144.697 24.0309 144.766 24.3271C144.834 24.6234 144.941 24.8831 145.087 25.1064C145.233 25.3298 145.42 25.5052 145.647 25.6328C145.875 25.7604 146.146 25.8242 146.461 25.8242C146.766 25.8242 147.031 25.7604 147.254 25.6328C147.482 25.5052 147.669 25.3298 147.814 25.1064C147.96 24.8831 148.067 24.6234 148.136 24.3271C148.209 24.0309 148.245 23.7165 148.245 23.3838V23.2266C148.245 22.8984 148.209 22.5885 148.136 22.2969C148.067 22.0007 147.958 21.7386 147.808 21.5107C147.662 21.2829 147.475 21.1051 147.247 20.9775C147.024 20.8454 146.757 20.7793 146.447 20.7793C146.137 20.7793 145.868 20.8454 145.641 20.9775C145.417 21.1051 145.233 21.2829 145.087 21.5107C144.941 21.7386 144.834 22.0007 144.766 22.2969C144.697 22.5885 144.663 22.8984 144.663 23.2266ZM156.011 19.6035H157.508V26.7949C157.508 27.4603 157.367 28.0254 157.084 28.4902C156.801 28.9551 156.407 29.3083 155.901 29.5498C155.396 29.7959 154.81 29.9189 154.145 29.9189C153.862 29.9189 153.548 29.8779 153.201 29.7959C152.859 29.7139 152.527 29.5817 152.203 29.3994C151.884 29.2217 151.618 28.987 151.403 28.6953L152.176 27.7246C152.44 28.0391 152.732 28.2692 153.051 28.415C153.37 28.5609 153.705 28.6338 154.056 28.6338C154.434 28.6338 154.755 28.5632 155.02 28.4219C155.288 28.2852 155.496 28.0824 155.642 27.8135C155.787 27.5446 155.86 27.2165 155.86 26.8291V21.2783L156.011 19.6035ZM150.986 23.3838V23.2402C150.986 22.6797 151.055 22.1693 151.191 21.709C151.328 21.2441 151.524 20.8454 151.779 20.5127C152.035 20.1755 152.344 19.918 152.709 19.7402C153.074 19.5579 153.486 19.4668 153.946 19.4668C154.425 19.4668 154.833 19.5534 155.17 19.7266C155.512 19.8997 155.797 20.1481 156.024 20.4717C156.252 20.7907 156.43 21.1735 156.558 21.6201C156.69 22.0622 156.788 22.5544 156.852 23.0967V23.5547C156.792 24.0833 156.692 24.5664 156.551 25.0039C156.41 25.4414 156.223 25.8197 155.99 26.1387C155.758 26.4577 155.471 26.7038 155.129 26.877C154.792 27.0501 154.393 27.1367 153.933 27.1367C153.481 27.1367 153.074 27.0433 152.709 26.8564C152.349 26.6696 152.039 26.4076 151.779 26.0703C151.524 25.7331 151.328 25.3366 151.191 24.8809C151.055 24.4206 150.986 23.9215 150.986 23.3838ZM152.634 23.2402V23.3838C152.634 23.721 152.666 24.0355 152.729 24.3271C152.798 24.6188 152.9 24.8763 153.037 25.0996C153.178 25.3184 153.356 25.4915 153.57 25.6191C153.789 25.7422 154.047 25.8037 154.343 25.8037C154.73 25.8037 155.047 25.7217 155.293 25.5576C155.544 25.3936 155.735 25.1725 155.867 24.8945C156.004 24.612 156.1 24.2975 156.154 23.9512V22.7139C156.127 22.445 156.07 22.1943 155.983 21.9619C155.901 21.7295 155.79 21.5267 155.648 21.3535C155.507 21.1758 155.329 21.0391 155.115 20.9434C154.901 20.8431 154.648 20.793 154.356 20.793C154.06 20.793 153.803 20.8568 153.584 20.9844C153.365 21.112 153.185 21.2874 153.044 21.5107C152.907 21.734 152.805 21.9938 152.736 22.29C152.668 22.5863 152.634 22.903 152.634 23.2402ZM160.98 16.5V27H159.326V16.5H160.98ZM166.046 27.1367C165.499 27.1367 165.005 27.0479 164.562 26.8701C164.125 26.6878 163.751 26.4349 163.441 26.1113C163.136 25.7878 162.901 25.4072 162.737 24.9697C162.573 24.5322 162.491 24.0605 162.491 23.5547V23.2812C162.491 22.7025 162.576 22.1784 162.744 21.709C162.913 21.2396 163.147 20.8385 163.448 20.5059C163.749 20.1686 164.104 19.9111 164.515 19.7334C164.925 19.5557 165.369 19.4668 165.848 19.4668C166.376 19.4668 166.839 19.5557 167.235 19.7334C167.632 19.9111 167.96 20.1618 168.22 20.4854C168.484 20.8044 168.68 21.1849 168.808 21.627C168.94 22.069 169.006 22.5566 169.006 23.0898V23.7939H163.291V22.6113H167.379V22.4814C167.37 22.1852 167.311 21.9072 167.201 21.6475C167.096 21.3877 166.935 21.1781 166.716 21.0186C166.497 20.859 166.205 20.7793 165.841 20.7793C165.567 20.7793 165.324 20.8385 165.109 20.957C164.9 21.071 164.724 21.2373 164.583 21.4561C164.442 21.6748 164.332 21.9391 164.255 22.249C164.182 22.5544 164.146 22.8984 164.146 23.2812V23.5547C164.146 23.8783 164.189 24.179 164.275 24.457C164.367 24.7305 164.499 24.9697 164.672 25.1748C164.845 25.3799 165.055 25.5417 165.301 25.6602C165.547 25.7741 165.827 25.8311 166.142 25.8311C166.538 25.8311 166.891 25.7513 167.201 25.5918C167.511 25.4323 167.78 25.2067 168.008 24.915L168.876 25.7559C168.716 25.9883 168.509 26.2116 168.254 26.4258C167.999 26.6354 167.687 26.8063 167.317 26.9385C166.953 27.0706 166.529 27.1367 166.046 27.1367Z" fill="black" fill-opacity="0.54"/>
</g>
<defs>
<filter id="filter0_dd_529_9730" x="2" y="2" width="177" height="43" filterUnits="userSpaceOnUse" color-interpolation-filters="sRGB">
<feFlood flood-opacity="0" result="BackgroundImageFix"/>
<feColorMatrix in="SourceAlpha" type="matrix" values="0 0 0 0 0 0 0 0 0 0 0 0 0 0 0 0 0 0 127 0" result="hardAlpha"/>
<feOffset dy="1"/>
<feGaussianBlur stdDeviation="0.5"/>
<feColorMatrix type="matrix" values="0 0 0 0 0 0 0 0 0 0 0 0 0 0 0 0 0 0 0.168 0"/>
<feBlend mode="normal" in2="BackgroundImageFix" result="effect1_dropShadow_529_9730"/>
<feColorMatrix in="SourceAlpha" type="matrix" values="0 0 0 0 0 0 0 0 0 0 0 0 0 0 0 0 0 0 127 0" result="hardAlpha"/>
<feOffset/>
<feGaussianBlur stdDeviation="0.5"/>
<feColorMatrix type="matrix" values="0 0 0 0 0 0 0 0 0 0 0 0 0 0 0 0 0 0 0.084 0"/>
<feBlend mode="normal" in2="effect1_dropShadow_529_9730" result="effect2_dropShadow_529_9730"/>
<feBlend mode="normal" in="SourceGraphic" in2="effect2_dropShadow_529_9730" result="shape"/>
</filter>
</defs>
</svg>
