<svg width="389" height="304" viewBox="0 0 389 304" fill="none" xmlns="http://www.w3.org/2000/svg">
<path d="M0 4C0 1.79086 1.79086 0 4 0H385C387.209 0 389 1.79086 389 4V300C389 302.209 387.209 304 385 304H3.99999C1.79085 304 0 302.209 0 300V4Z" fill="#E6E9F2"/>
<g clip-path="url(#clip0_529_9785)">
<path d="M214.167 137.666V114.666C214.167 112.558 212.442 110.833 210.334 110.833H187.334C185.226 110.833 183.501 112.558 183.501 114.666V137.666C183.501 139.775 185.226 141.5 187.334 141.5H210.334C212.442 141.5 214.167 139.775 214.167 137.666ZM193.084 130L196.975 135.194L202.667 128.083L210.334 137.666H187.334L193.084 130ZM175.834 118.5V145.333C175.834 147.441 177.559 149.166 179.667 149.166H206.501V145.333H179.667V118.5H175.834Z" fill="#323232"/>
</g>
<path opacity="0.6" d="M67.1641 177.835H68.4766C68.4082 178.464 68.2282 179.027 67.9365 179.523C67.6449 180.02 67.2324 180.414 66.6992 180.706C66.166 180.993 65.5007 181.137 64.7031 181.137C64.1198 181.137 63.5889 181.027 63.1104 180.809C62.6364 180.59 62.2285 180.28 61.8867 179.879C61.5449 179.473 61.2806 178.988 61.0938 178.423C60.9115 177.853 60.8203 177.22 60.8203 176.522V175.531C60.8203 174.834 60.9115 174.203 61.0938 173.638C61.2806 173.068 61.5472 172.58 61.8936 172.175C62.2445 171.769 62.666 171.457 63.1582 171.238C63.6504 171.02 64.2041 170.91 64.8193 170.91C65.5713 170.91 66.207 171.051 66.7266 171.334C67.2461 171.617 67.6494 172.008 67.9365 172.51C68.2282 173.007 68.4082 173.583 68.4766 174.239H67.1641C67.1003 173.774 66.9818 173.376 66.8086 173.043C66.6354 172.706 66.3893 172.446 66.0703 172.264C65.7513 172.081 65.3343 171.99 64.8193 171.99C64.3773 171.99 63.9876 172.075 63.6504 172.243C63.3177 172.412 63.0374 172.651 62.8096 172.961C62.5863 173.271 62.4176 173.642 62.3037 174.075C62.1898 174.508 62.1328 174.989 62.1328 175.518V176.522C62.1328 177.01 62.1829 177.468 62.2832 177.896C62.388 178.325 62.5452 178.701 62.7549 179.024C62.9645 179.348 63.2311 179.603 63.5547 179.79C63.8783 179.972 64.2611 180.063 64.7031 180.063C65.2637 180.063 65.7103 179.975 66.043 179.797C66.3757 179.619 66.6263 179.364 66.7949 179.031C66.9681 178.699 67.0911 178.3 67.1641 177.835ZM69.998 177.384V177.227C69.998 176.693 70.0755 176.199 70.2305 175.743C70.3854 175.283 70.6087 174.884 70.9004 174.547C71.1921 174.205 71.5452 173.941 71.96 173.754C72.3747 173.562 72.8395 173.467 73.3545 173.467C73.874 173.467 74.3411 173.562 74.7559 173.754C75.1751 173.941 75.5306 174.205 75.8223 174.547C76.1185 174.884 76.3441 175.283 76.499 175.743C76.654 176.199 76.7314 176.693 76.7314 177.227V177.384C76.7314 177.917 76.654 178.411 76.499 178.867C76.3441 179.323 76.1185 179.722 75.8223 180.063C75.5306 180.401 75.1774 180.665 74.7627 180.856C74.3525 181.043 73.8877 181.137 73.3682 181.137C72.8486 181.137 72.3815 181.043 71.9668 180.856C71.5521 180.665 71.1966 180.401 70.9004 180.063C70.6087 179.722 70.3854 179.323 70.2305 178.867C70.0755 178.411 69.998 177.917 69.998 177.384ZM71.2627 177.227V177.384C71.2627 177.753 71.306 178.102 71.3926 178.43C71.4792 178.753 71.609 179.04 71.7822 179.291C71.96 179.542 72.181 179.74 72.4453 179.886C72.7096 180.027 73.0173 180.098 73.3682 180.098C73.7145 180.098 74.0176 180.027 74.2773 179.886C74.5417 179.74 74.7604 179.542 74.9336 179.291C75.1068 179.04 75.2367 178.753 75.3232 178.43C75.4144 178.102 75.46 177.753 75.46 177.384V177.227C75.46 176.862 75.4144 176.518 75.3232 176.194C75.2367 175.866 75.1045 175.577 74.9268 175.326C74.7536 175.071 74.5348 174.87 74.2705 174.725C74.0107 174.579 73.7054 174.506 73.3545 174.506C73.0081 174.506 72.7028 174.579 72.4385 174.725C72.1787 174.87 71.96 175.071 71.7822 175.326C71.609 175.577 71.4792 175.866 71.3926 176.194C71.306 176.518 71.2627 176.862 71.2627 177.227ZM79.8252 175.073V181H78.5537V173.604H79.7568L79.8252 175.073ZM79.5654 177.021L78.9775 177.001C78.9821 176.495 79.0482 176.028 79.1758 175.6C79.3034 175.167 79.4925 174.791 79.7432 174.472C79.9938 174.153 80.306 173.907 80.6797 173.733C81.0534 173.556 81.4863 173.467 81.9785 173.467C82.3249 173.467 82.6439 173.517 82.9355 173.617C83.2272 173.713 83.4801 173.866 83.6943 174.075C83.9085 174.285 84.0749 174.554 84.1934 174.882C84.3118 175.21 84.3711 175.606 84.3711 176.071V181H83.1064V176.133C83.1064 175.745 83.0404 175.436 82.9082 175.203C82.7806 174.971 82.5983 174.802 82.3613 174.697C82.1243 174.588 81.8464 174.533 81.5273 174.533C81.1536 174.533 80.8415 174.599 80.5908 174.731C80.3402 174.864 80.1396 175.046 79.9893 175.278C79.8389 175.511 79.7295 175.777 79.6611 176.078C79.5973 176.374 79.5654 176.689 79.5654 177.021ZM84.3574 176.324L83.5098 176.584C83.5143 176.178 83.5804 175.789 83.708 175.415C83.8402 175.041 84.0293 174.709 84.2754 174.417C84.526 174.125 84.8337 173.895 85.1982 173.727C85.5628 173.553 85.9798 173.467 86.4492 173.467C86.8457 173.467 87.1966 173.519 87.502 173.624C87.8118 173.729 88.0716 173.891 88.2812 174.109C88.4954 174.324 88.6572 174.599 88.7666 174.937C88.876 175.274 88.9307 175.675 88.9307 176.14V181H87.6592V176.126C87.6592 175.711 87.5931 175.39 87.4609 175.162C87.3333 174.93 87.151 174.768 86.9141 174.677C86.6816 174.581 86.4036 174.533 86.0801 174.533C85.8021 174.533 85.556 174.581 85.3418 174.677C85.1276 174.772 84.9476 174.905 84.8018 175.073C84.6559 175.237 84.5443 175.426 84.4668 175.641C84.3939 175.855 84.3574 176.083 84.3574 176.324ZM92.3594 175.025V183.844H91.0879V173.604H92.25L92.3594 175.025ZM97.3428 177.24V177.384C97.3428 177.922 97.279 178.421 97.1514 178.881C97.0238 179.337 96.8369 179.733 96.5908 180.07C96.3493 180.408 96.0508 180.67 95.6953 180.856C95.3398 181.043 94.932 181.137 94.4717 181.137C94.0023 181.137 93.5876 181.059 93.2275 180.904C92.8675 180.749 92.5622 180.524 92.3115 180.228C92.0609 179.931 91.8604 179.576 91.71 179.161C91.5641 178.746 91.4639 178.279 91.4092 177.76V176.994C91.4639 176.447 91.5664 175.957 91.7168 175.524C91.8672 175.091 92.0654 174.722 92.3115 174.417C92.5622 174.107 92.8652 173.872 93.2207 173.713C93.5762 173.549 93.9863 173.467 94.4512 173.467C94.916 173.467 95.3285 173.558 95.6885 173.74C96.0485 173.918 96.3516 174.173 96.5977 174.506C96.8438 174.839 97.0283 175.237 97.1514 175.702C97.279 176.162 97.3428 176.675 97.3428 177.24ZM96.0713 177.384V177.24C96.0713 176.871 96.0326 176.525 95.9551 176.201C95.8776 175.873 95.7568 175.586 95.5928 175.34C95.4333 175.089 95.2282 174.893 94.9775 174.752C94.7269 174.606 94.4284 174.533 94.082 174.533C93.763 174.533 93.485 174.588 93.248 174.697C93.0156 174.807 92.8174 174.955 92.6533 175.142C92.4893 175.324 92.3548 175.534 92.25 175.771C92.1497 176.003 92.0745 176.244 92.0244 176.495V178.266C92.1156 178.585 92.2432 178.885 92.4072 179.168C92.5713 179.446 92.79 179.672 93.0635 179.845C93.3369 180.013 93.681 180.098 94.0957 180.098C94.4375 180.098 94.7314 180.027 94.9775 179.886C95.2282 179.74 95.4333 179.542 95.5928 179.291C95.7568 179.04 95.8776 178.753 95.9551 178.43C96.0326 178.102 96.0713 177.753 96.0713 177.384ZM103.567 179.735V175.928C103.567 175.636 103.508 175.383 103.39 175.169C103.276 174.95 103.103 174.782 102.87 174.663C102.638 174.545 102.351 174.485 102.009 174.485C101.69 174.485 101.41 174.54 101.168 174.649C100.931 174.759 100.744 174.902 100.607 175.08C100.475 175.258 100.409 175.449 100.409 175.654H99.1445C99.1445 175.39 99.2129 175.128 99.3496 174.868C99.4863 174.608 99.6823 174.374 99.9375 174.164C100.197 173.95 100.507 173.781 100.867 173.658C101.232 173.531 101.637 173.467 102.084 173.467C102.622 173.467 103.096 173.558 103.506 173.74C103.921 173.923 104.244 174.198 104.477 174.567C104.714 174.932 104.832 175.39 104.832 175.941V179.387C104.832 179.633 104.853 179.895 104.894 180.173C104.939 180.451 105.005 180.69 105.092 180.891V181H103.772C103.709 180.854 103.659 180.66 103.622 180.419C103.586 180.173 103.567 179.945 103.567 179.735ZM103.786 176.516L103.8 177.404H102.521C102.161 177.404 101.84 177.434 101.558 177.493C101.275 177.548 101.038 177.632 100.847 177.746C100.655 177.86 100.509 178.004 100.409 178.177C100.309 178.345 100.259 178.544 100.259 178.771C100.259 179.004 100.311 179.216 100.416 179.407C100.521 179.599 100.678 179.751 100.888 179.865C101.102 179.975 101.364 180.029 101.674 180.029C102.061 180.029 102.403 179.947 102.699 179.783C102.995 179.619 103.23 179.419 103.403 179.182C103.581 178.945 103.677 178.715 103.69 178.491L104.23 179.1C104.199 179.291 104.112 179.503 103.971 179.735C103.829 179.968 103.64 180.191 103.403 180.405C103.171 180.615 102.893 180.79 102.569 180.932C102.25 181.068 101.89 181.137 101.489 181.137C100.988 181.137 100.548 181.039 100.17 180.843C99.7962 180.647 99.5046 180.385 99.2949 180.057C99.0898 179.724 98.9873 179.353 98.9873 178.942C98.9873 178.546 99.0648 178.197 99.2197 177.896C99.3747 177.591 99.598 177.338 99.8896 177.138C100.181 176.933 100.532 176.778 100.942 176.673C101.353 176.568 101.811 176.516 102.316 176.516H103.786ZM108.336 174.766V181H107.071V173.604H108.302L108.336 174.766ZM110.646 173.562L110.64 174.738C110.535 174.715 110.435 174.702 110.339 174.697C110.248 174.688 110.143 174.684 110.024 174.684C109.733 174.684 109.475 174.729 109.252 174.82C109.029 174.911 108.84 175.039 108.685 175.203C108.53 175.367 108.407 175.563 108.315 175.791C108.229 176.014 108.172 176.26 108.145 176.529L107.789 176.734C107.789 176.288 107.832 175.868 107.919 175.477C108.01 175.085 108.149 174.738 108.336 174.438C108.523 174.132 108.76 173.895 109.047 173.727C109.339 173.553 109.685 173.467 110.086 173.467C110.177 173.467 110.282 173.478 110.4 173.501C110.519 173.519 110.601 173.54 110.646 173.562ZM115.504 173.604V174.574H111.505V173.604H115.504ZM112.858 171.806H114.123V179.168C114.123 179.419 114.162 179.608 114.239 179.735C114.317 179.863 114.417 179.947 114.54 179.988C114.663 180.029 114.795 180.05 114.937 180.05C115.041 180.05 115.151 180.041 115.265 180.022C115.383 180 115.472 179.981 115.531 179.968L115.538 181C115.438 181.032 115.306 181.062 115.142 181.089C114.982 181.121 114.788 181.137 114.561 181.137C114.251 181.137 113.966 181.075 113.706 180.952C113.446 180.829 113.239 180.624 113.084 180.337C112.934 180.045 112.858 179.653 112.858 179.161V171.806ZM118.611 173.604V181H117.34V173.604H118.611ZM117.244 171.642C117.244 171.437 117.306 171.263 117.429 171.122C117.556 170.981 117.743 170.91 117.989 170.91C118.231 170.91 118.415 170.981 118.543 171.122C118.675 171.263 118.741 171.437 118.741 171.642C118.741 171.838 118.675 172.006 118.543 172.147C118.415 172.284 118.231 172.353 117.989 172.353C117.743 172.353 117.556 172.284 117.429 172.147C117.306 172.006 117.244 171.838 117.244 171.642ZM122.266 170.5V181H120.994V170.5H122.266ZM125.811 170.5V181H124.546V170.5H125.811ZM125.51 177.021L124.983 177.001C124.988 176.495 125.063 176.028 125.209 175.6C125.355 175.167 125.56 174.791 125.824 174.472C126.089 174.153 126.403 173.907 126.768 173.733C127.137 173.556 127.545 173.467 127.991 173.467C128.356 173.467 128.684 173.517 128.976 173.617C129.267 173.713 129.516 173.868 129.721 174.082C129.93 174.296 130.09 174.574 130.199 174.916C130.309 175.253 130.363 175.666 130.363 176.153V181H129.092V176.14C129.092 175.752 129.035 175.442 128.921 175.21C128.807 174.973 128.641 174.802 128.422 174.697C128.203 174.588 127.934 174.533 127.615 174.533C127.301 174.533 127.014 174.599 126.754 174.731C126.499 174.864 126.278 175.046 126.091 175.278C125.909 175.511 125.765 175.777 125.66 176.078C125.56 176.374 125.51 176.689 125.51 177.021ZM135.576 181.137C135.061 181.137 134.594 181.05 134.175 180.877C133.76 180.699 133.402 180.451 133.102 180.132C132.805 179.813 132.577 179.435 132.418 178.997C132.258 178.56 132.179 178.081 132.179 177.562V177.274C132.179 176.673 132.268 176.137 132.445 175.668C132.623 175.194 132.865 174.793 133.17 174.465C133.475 174.137 133.822 173.888 134.209 173.72C134.596 173.551 134.997 173.467 135.412 173.467C135.941 173.467 136.396 173.558 136.779 173.74C137.167 173.923 137.483 174.178 137.729 174.506C137.976 174.829 138.158 175.212 138.276 175.654C138.395 176.092 138.454 176.57 138.454 177.09V177.657H132.931V176.625H137.189V176.529C137.171 176.201 137.103 175.882 136.984 175.572C136.87 175.262 136.688 175.007 136.438 174.807C136.187 174.606 135.845 174.506 135.412 174.506C135.125 174.506 134.861 174.567 134.619 174.69C134.378 174.809 134.17 174.987 133.997 175.224C133.824 175.461 133.689 175.75 133.594 176.092C133.498 176.434 133.45 176.828 133.45 177.274V177.562C133.45 177.912 133.498 178.243 133.594 178.553C133.694 178.858 133.838 179.127 134.024 179.359C134.216 179.592 134.446 179.774 134.715 179.906C134.988 180.038 135.298 180.104 135.645 180.104C136.091 180.104 136.469 180.013 136.779 179.831C137.089 179.649 137.36 179.405 137.593 179.1L138.358 179.708C138.199 179.95 137.996 180.18 137.75 180.398C137.504 180.617 137.201 180.795 136.841 180.932C136.485 181.068 136.064 181.137 135.576 181.137ZM148.21 179.038C148.21 178.856 148.169 178.687 148.087 178.532C148.009 178.373 147.848 178.229 147.602 178.102C147.36 177.969 146.995 177.855 146.508 177.76C146.098 177.673 145.726 177.571 145.394 177.452C145.065 177.334 144.785 177.19 144.553 177.021C144.325 176.853 144.149 176.655 144.026 176.427C143.903 176.199 143.842 175.932 143.842 175.627C143.842 175.335 143.906 175.06 144.033 174.8C144.165 174.54 144.35 174.31 144.587 174.109C144.828 173.909 145.118 173.752 145.455 173.638C145.792 173.524 146.168 173.467 146.583 173.467C147.175 173.467 147.681 173.572 148.101 173.781C148.52 173.991 148.841 174.271 149.064 174.622C149.288 174.968 149.399 175.354 149.399 175.777H148.135C148.135 175.572 148.073 175.374 147.95 175.183C147.832 174.987 147.656 174.825 147.424 174.697C147.196 174.57 146.916 174.506 146.583 174.506C146.232 174.506 145.947 174.561 145.729 174.67C145.514 174.775 145.357 174.909 145.257 175.073C145.161 175.237 145.113 175.41 145.113 175.593C145.113 175.729 145.136 175.853 145.182 175.962C145.232 176.067 145.318 176.165 145.441 176.256C145.564 176.342 145.738 176.424 145.961 176.502C146.184 176.579 146.469 176.657 146.815 176.734C147.422 176.871 147.921 177.035 148.312 177.227C148.704 177.418 148.996 177.653 149.188 177.931C149.379 178.209 149.475 178.546 149.475 178.942C149.475 179.266 149.406 179.562 149.27 179.831C149.137 180.1 148.944 180.332 148.688 180.528C148.438 180.72 148.137 180.87 147.786 180.979C147.44 181.084 147.05 181.137 146.617 181.137C145.965 181.137 145.414 181.021 144.963 180.788C144.512 180.556 144.17 180.255 143.938 179.886C143.705 179.517 143.589 179.127 143.589 178.717H144.86C144.879 179.063 144.979 179.339 145.161 179.544C145.343 179.744 145.567 179.888 145.831 179.975C146.095 180.057 146.357 180.098 146.617 180.098C146.964 180.098 147.253 180.052 147.485 179.961C147.722 179.87 147.902 179.744 148.025 179.585C148.148 179.425 148.21 179.243 148.21 179.038ZM154.455 181.137C153.94 181.137 153.473 181.05 153.054 180.877C152.639 180.699 152.281 180.451 151.98 180.132C151.684 179.813 151.456 179.435 151.297 178.997C151.137 178.56 151.058 178.081 151.058 177.562V177.274C151.058 176.673 151.146 176.137 151.324 175.668C151.502 175.194 151.743 174.793 152.049 174.465C152.354 174.137 152.701 173.888 153.088 173.72C153.475 173.551 153.876 173.467 154.291 173.467C154.82 173.467 155.275 173.558 155.658 173.74C156.046 173.923 156.362 174.178 156.608 174.506C156.854 174.829 157.037 175.212 157.155 175.654C157.274 176.092 157.333 176.57 157.333 177.09V177.657H151.81V176.625H156.068V176.529C156.05 176.201 155.982 175.882 155.863 175.572C155.749 175.262 155.567 175.007 155.316 174.807C155.066 174.606 154.724 174.506 154.291 174.506C154.004 174.506 153.74 174.567 153.498 174.69C153.257 174.809 153.049 174.987 152.876 175.224C152.703 175.461 152.568 175.75 152.473 176.092C152.377 176.434 152.329 176.828 152.329 177.274V177.562C152.329 177.912 152.377 178.243 152.473 178.553C152.573 178.858 152.716 179.127 152.903 179.359C153.095 179.592 153.325 179.774 153.594 179.906C153.867 180.038 154.177 180.104 154.523 180.104C154.97 180.104 155.348 180.013 155.658 179.831C155.968 179.649 156.239 179.405 156.472 179.1L157.237 179.708C157.078 179.95 156.875 180.18 156.629 180.398C156.383 180.617 156.08 180.795 155.72 180.932C155.364 181.068 154.943 181.137 154.455 181.137ZM163.585 179.291V173.604H164.856V181H163.646L163.585 179.291ZM163.824 177.732L164.351 177.719C164.351 178.211 164.298 178.667 164.193 179.086C164.093 179.501 163.929 179.861 163.701 180.166C163.473 180.471 163.175 180.711 162.806 180.884C162.437 181.052 161.988 181.137 161.459 181.137C161.099 181.137 160.769 181.084 160.468 180.979C160.172 180.875 159.916 180.713 159.702 180.494C159.488 180.275 159.322 179.991 159.203 179.64C159.089 179.289 159.032 178.867 159.032 178.375V173.604H160.297V178.389C160.297 178.721 160.333 178.997 160.406 179.216C160.484 179.43 160.586 179.601 160.714 179.729C160.846 179.852 160.992 179.938 161.151 179.988C161.315 180.038 161.484 180.063 161.657 180.063C162.195 180.063 162.621 179.961 162.936 179.756C163.25 179.546 163.476 179.266 163.612 178.915C163.754 178.56 163.824 178.165 163.824 177.732ZM173.854 173.604V174.574H169.854V173.604H173.854ZM171.208 171.806H172.473V179.168C172.473 179.419 172.511 179.608 172.589 179.735C172.666 179.863 172.767 179.947 172.89 179.988C173.013 180.029 173.145 180.05 173.286 180.05C173.391 180.05 173.5 180.041 173.614 180.022C173.733 180 173.822 179.981 173.881 179.968L173.888 181C173.787 181.032 173.655 181.062 173.491 181.089C173.332 181.121 173.138 181.137 172.91 181.137C172.6 181.137 172.315 181.075 172.056 180.952C171.796 180.829 171.589 180.624 171.434 180.337C171.283 180.045 171.208 179.653 171.208 179.161V171.806ZM179.948 179.735V175.928C179.948 175.636 179.889 175.383 179.771 175.169C179.657 174.95 179.483 174.782 179.251 174.663C179.019 174.545 178.731 174.485 178.39 174.485C178.071 174.485 177.79 174.54 177.549 174.649C177.312 174.759 177.125 174.902 176.988 175.08C176.856 175.258 176.79 175.449 176.79 175.654H175.525C175.525 175.39 175.594 175.128 175.73 174.868C175.867 174.608 176.063 174.374 176.318 174.164C176.578 173.95 176.888 173.781 177.248 173.658C177.613 173.531 178.018 173.467 178.465 173.467C179.003 173.467 179.477 173.558 179.887 173.74C180.301 173.923 180.625 174.198 180.857 174.567C181.094 174.932 181.213 175.39 181.213 175.941V179.387C181.213 179.633 181.233 179.895 181.274 180.173C181.32 180.451 181.386 180.69 181.473 180.891V181H180.153C180.09 180.854 180.039 180.66 180.003 180.419C179.966 180.173 179.948 179.945 179.948 179.735ZM180.167 176.516L180.181 177.404H178.902C178.542 177.404 178.221 177.434 177.938 177.493C177.656 177.548 177.419 177.632 177.228 177.746C177.036 177.86 176.89 178.004 176.79 178.177C176.69 178.345 176.64 178.544 176.64 178.771C176.64 179.004 176.692 179.216 176.797 179.407C176.902 179.599 177.059 179.751 177.269 179.865C177.483 179.975 177.745 180.029 178.055 180.029C178.442 180.029 178.784 179.947 179.08 179.783C179.376 179.619 179.611 179.419 179.784 179.182C179.962 178.945 180.058 178.715 180.071 178.491L180.611 179.1C180.579 179.291 180.493 179.503 180.352 179.735C180.21 179.968 180.021 180.191 179.784 180.405C179.552 180.615 179.274 180.79 178.95 180.932C178.631 181.068 178.271 181.137 177.87 181.137C177.369 181.137 176.929 181.039 176.551 180.843C176.177 180.647 175.885 180.385 175.676 180.057C175.471 179.724 175.368 179.353 175.368 178.942C175.368 178.546 175.446 178.197 175.601 177.896C175.756 177.591 175.979 177.338 176.271 177.138C176.562 176.933 176.913 176.778 177.323 176.673C177.733 176.568 178.191 176.516 178.697 176.516H180.167ZM184.826 170.5V181H183.555V170.5H184.826ZM190.176 181.137C189.661 181.137 189.194 181.05 188.774 180.877C188.36 180.699 188.002 180.451 187.701 180.132C187.405 179.813 187.177 179.435 187.018 178.997C186.858 178.56 186.778 178.081 186.778 177.562V177.274C186.778 176.673 186.867 176.137 187.045 175.668C187.223 175.194 187.464 174.793 187.77 174.465C188.075 174.137 188.421 173.888 188.809 173.72C189.196 173.551 189.597 173.467 190.012 173.467C190.54 173.467 190.996 173.558 191.379 173.74C191.766 173.923 192.083 174.178 192.329 174.506C192.575 174.829 192.757 175.212 192.876 175.654C192.994 176.092 193.054 176.57 193.054 177.09V177.657H187.53V176.625H191.789V176.529C191.771 176.201 191.702 175.882 191.584 175.572C191.47 175.262 191.288 175.007 191.037 174.807C190.786 174.606 190.445 174.506 190.012 174.506C189.725 174.506 189.46 174.567 189.219 174.69C188.977 174.809 188.77 174.987 188.597 175.224C188.424 175.461 188.289 175.75 188.193 176.092C188.098 176.434 188.05 176.828 188.05 177.274V177.562C188.05 177.912 188.098 178.243 188.193 178.553C188.294 178.858 188.437 179.127 188.624 179.359C188.815 179.592 189.046 179.774 189.314 179.906C189.588 180.038 189.898 180.104 190.244 180.104C190.691 180.104 191.069 180.013 191.379 179.831C191.689 179.649 191.96 179.405 192.192 179.1L192.958 179.708C192.799 179.95 192.596 180.18 192.35 180.398C192.104 180.617 191.8 180.795 191.44 180.932C191.085 181.068 190.663 181.137 190.176 181.137ZM196.045 175.183V181H194.78V173.604H195.977L196.045 175.183ZM195.744 177.021L195.218 177.001C195.222 176.495 195.298 176.028 195.443 175.6C195.589 175.167 195.794 174.791 196.059 174.472C196.323 174.153 196.637 173.907 197.002 173.733C197.371 173.556 197.779 173.467 198.226 173.467C198.59 173.467 198.918 173.517 199.21 173.617C199.502 173.713 199.75 173.868 199.955 174.082C200.165 174.296 200.324 174.574 200.434 174.916C200.543 175.253 200.598 175.666 200.598 176.153V181H199.326V176.14C199.326 175.752 199.269 175.442 199.155 175.21C199.041 174.973 198.875 174.802 198.656 174.697C198.438 174.588 198.169 174.533 197.85 174.533C197.535 174.533 197.248 174.599 196.988 174.731C196.733 174.864 196.512 175.046 196.325 175.278C196.143 175.511 195.999 175.777 195.895 176.078C195.794 176.374 195.744 176.689 195.744 177.021ZM205.865 173.604V174.574H201.866V173.604H205.865ZM203.22 171.806H204.484V179.168C204.484 179.419 204.523 179.608 204.601 179.735C204.678 179.863 204.778 179.947 204.901 179.988C205.024 180.029 205.157 180.05 205.298 180.05C205.403 180.05 205.512 180.041 205.626 180.022C205.744 180 205.833 179.981 205.893 179.968L205.899 181C205.799 181.032 205.667 181.062 205.503 181.089C205.343 181.121 205.15 181.137 204.922 181.137C204.612 181.137 204.327 181.075 204.067 180.952C203.808 180.829 203.6 180.624 203.445 180.337C203.295 180.045 203.22 179.653 203.22 179.161V171.806ZM207.127 177.384V177.227C207.127 176.693 207.204 176.199 207.359 175.743C207.514 175.283 207.738 174.884 208.029 174.547C208.321 174.205 208.674 173.941 209.089 173.754C209.504 173.562 209.968 173.467 210.483 173.467C211.003 173.467 211.47 173.562 211.885 173.754C212.304 173.941 212.66 174.205 212.951 174.547C213.247 174.884 213.473 175.283 213.628 175.743C213.783 176.199 213.86 176.693 213.86 177.227V177.384C213.86 177.917 213.783 178.411 213.628 178.867C213.473 179.323 213.247 179.722 212.951 180.063C212.66 180.401 212.306 180.665 211.892 180.856C211.481 181.043 211.017 181.137 210.497 181.137C209.978 181.137 209.51 181.043 209.096 180.856C208.681 180.665 208.326 180.401 208.029 180.063C207.738 179.722 207.514 179.323 207.359 178.867C207.204 178.411 207.127 177.917 207.127 177.384ZM208.392 177.227V177.384C208.392 177.753 208.435 178.102 208.521 178.43C208.608 178.753 208.738 179.04 208.911 179.291C209.089 179.542 209.31 179.74 209.574 179.886C209.839 180.027 210.146 180.098 210.497 180.098C210.843 180.098 211.146 180.027 211.406 179.886C211.671 179.74 211.889 179.542 212.062 179.291C212.236 179.04 212.366 178.753 212.452 178.43C212.543 178.102 212.589 177.753 212.589 177.384V177.227C212.589 176.862 212.543 176.518 212.452 176.194C212.366 175.866 212.233 175.577 212.056 175.326C211.882 175.071 211.664 174.87 211.399 174.725C211.14 174.579 210.834 174.506 210.483 174.506C210.137 174.506 209.832 174.579 209.567 174.725C209.308 174.87 209.089 175.071 208.911 175.326C208.738 175.577 208.608 175.866 208.521 176.194C208.435 176.518 208.392 176.862 208.392 177.227ZM222.379 180.098C222.68 180.098 222.958 180.036 223.213 179.913C223.468 179.79 223.678 179.621 223.842 179.407C224.006 179.188 224.099 178.94 224.122 178.662H225.325C225.302 179.1 225.154 179.507 224.881 179.886C224.612 180.259 224.259 180.562 223.821 180.795C223.384 181.023 222.903 181.137 222.379 181.137C221.823 181.137 221.338 181.039 220.923 180.843C220.513 180.647 220.171 180.378 219.897 180.036C219.629 179.694 219.426 179.302 219.289 178.86C219.157 178.414 219.091 177.942 219.091 177.445V177.158C219.091 176.661 219.157 176.192 219.289 175.75C219.426 175.303 219.629 174.909 219.897 174.567C220.171 174.226 220.513 173.957 220.923 173.761C221.338 173.565 221.823 173.467 222.379 173.467C222.958 173.467 223.464 173.585 223.896 173.822C224.329 174.055 224.669 174.374 224.915 174.779C225.166 175.18 225.302 175.636 225.325 176.146H224.122C224.099 175.841 224.013 175.565 223.862 175.319C223.716 175.073 223.516 174.877 223.261 174.731C223.01 174.581 222.716 174.506 222.379 174.506C221.992 174.506 221.666 174.583 221.401 174.738C221.142 174.889 220.934 175.094 220.779 175.354C220.629 175.609 220.52 175.894 220.451 176.208C220.387 176.518 220.355 176.835 220.355 177.158V177.445C220.355 177.769 220.387 178.088 220.451 178.402C220.515 178.717 220.622 179.002 220.772 179.257C220.927 179.512 221.135 179.717 221.395 179.872C221.659 180.022 221.987 180.098 222.379 180.098ZM226.662 177.384V177.227C226.662 176.693 226.74 176.199 226.895 175.743C227.049 175.283 227.273 174.884 227.564 174.547C227.856 174.205 228.209 173.941 228.624 173.754C229.039 173.562 229.504 173.467 230.019 173.467C230.538 173.467 231.005 173.562 231.42 173.754C231.839 173.941 232.195 174.205 232.486 174.547C232.783 174.884 233.008 175.283 233.163 175.743C233.318 176.199 233.396 176.693 233.396 177.227V177.384C233.396 177.917 233.318 178.411 233.163 178.867C233.008 179.323 232.783 179.722 232.486 180.063C232.195 180.401 231.841 180.665 231.427 180.856C231.017 181.043 230.552 181.137 230.032 181.137C229.513 181.137 229.046 181.043 228.631 180.856C228.216 180.665 227.861 180.401 227.564 180.063C227.273 179.722 227.049 179.323 226.895 178.867C226.74 178.411 226.662 177.917 226.662 177.384ZM227.927 177.227V177.384C227.927 177.753 227.97 178.102 228.057 178.43C228.143 178.753 228.273 179.04 228.446 179.291C228.624 179.542 228.845 179.74 229.109 179.886C229.374 180.027 229.681 180.098 230.032 180.098C230.379 180.098 230.682 180.027 230.941 179.886C231.206 179.74 231.424 179.542 231.598 179.291C231.771 179.04 231.901 178.753 231.987 178.43C232.078 178.102 232.124 177.753 232.124 177.384V177.227C232.124 176.862 232.078 176.518 231.987 176.194C231.901 175.866 231.769 175.577 231.591 175.326C231.418 175.071 231.199 174.87 230.935 174.725C230.675 174.579 230.369 174.506 230.019 174.506C229.672 174.506 229.367 174.579 229.103 174.725C228.843 174.87 228.624 175.071 228.446 175.326C228.273 175.577 228.143 175.866 228.057 176.194C227.97 176.518 227.927 176.862 227.927 177.227ZM236.489 175.073V181H235.218V173.604H236.421L236.489 175.073ZM236.229 177.021L235.642 177.001C235.646 176.495 235.712 176.028 235.84 175.6C235.967 175.167 236.157 174.791 236.407 174.472C236.658 174.153 236.97 173.907 237.344 173.733C237.717 173.556 238.15 173.467 238.643 173.467C238.989 173.467 239.308 173.517 239.6 173.617C239.891 173.713 240.144 173.866 240.358 174.075C240.573 174.285 240.739 174.554 240.857 174.882C240.976 175.21 241.035 175.606 241.035 176.071V181H239.771V176.133C239.771 175.745 239.704 175.436 239.572 175.203C239.445 174.971 239.262 174.802 239.025 174.697C238.788 174.588 238.51 174.533 238.191 174.533C237.818 174.533 237.506 174.599 237.255 174.731C237.004 174.864 236.804 175.046 236.653 175.278C236.503 175.511 236.394 175.777 236.325 176.078C236.261 176.374 236.229 176.689 236.229 177.021ZM241.021 176.324L240.174 176.584C240.178 176.178 240.244 175.789 240.372 175.415C240.504 175.041 240.693 174.709 240.939 174.417C241.19 174.125 241.498 173.895 241.862 173.727C242.227 173.553 242.644 173.467 243.113 173.467C243.51 173.467 243.861 173.519 244.166 173.624C244.476 173.729 244.736 173.891 244.945 174.109C245.16 174.324 245.321 174.599 245.431 174.937C245.54 175.274 245.595 175.675 245.595 176.14V181H244.323V176.126C244.323 175.711 244.257 175.39 244.125 175.162C243.997 174.93 243.815 174.768 243.578 174.677C243.346 174.581 243.068 174.533 242.744 174.533C242.466 174.533 242.22 174.581 242.006 174.677C241.792 174.772 241.612 174.905 241.466 175.073C241.32 175.237 241.208 175.426 241.131 175.641C241.058 175.855 241.021 176.083 241.021 176.324ZM252.739 175.073V181H251.468V173.604H252.671L252.739 175.073ZM252.479 177.021L251.892 177.001C251.896 176.495 251.962 176.028 252.09 175.6C252.217 175.167 252.407 174.791 252.657 174.472C252.908 174.153 253.22 173.907 253.594 173.733C253.967 173.556 254.4 173.467 254.893 173.467C255.239 173.467 255.558 173.517 255.85 173.617C256.141 173.713 256.394 173.866 256.608 174.075C256.823 174.285 256.989 174.554 257.107 174.882C257.226 175.21 257.285 175.606 257.285 176.071V181H256.021V176.133C256.021 175.745 255.954 175.436 255.822 175.203C255.695 174.971 255.512 174.802 255.275 174.697C255.038 174.588 254.76 174.533 254.441 174.533C254.068 174.533 253.756 174.599 253.505 174.731C253.254 174.864 253.054 175.046 252.903 175.278C252.753 175.511 252.644 175.777 252.575 176.078C252.511 176.374 252.479 176.689 252.479 177.021ZM257.271 176.324L256.424 176.584C256.428 176.178 256.494 175.789 256.622 175.415C256.754 175.041 256.943 174.709 257.189 174.417C257.44 174.125 257.748 173.895 258.112 173.727C258.477 173.553 258.894 173.467 259.363 173.467C259.76 173.467 260.111 173.519 260.416 173.624C260.726 173.729 260.986 173.891 261.195 174.109C261.41 174.324 261.571 174.599 261.681 174.937C261.79 175.274 261.845 175.675 261.845 176.14V181H260.573V176.126C260.573 175.711 260.507 175.39 260.375 175.162C260.247 174.93 260.065 174.768 259.828 174.677C259.596 174.581 259.318 174.533 258.994 174.533C258.716 174.533 258.47 174.581 258.256 174.677C258.042 174.772 257.862 174.905 257.716 175.073C257.57 175.237 257.458 175.426 257.381 175.641C257.308 175.855 257.271 176.083 257.271 176.324ZM265.383 173.604V181H264.111V173.604H265.383ZM264.016 171.642C264.016 171.437 264.077 171.263 264.2 171.122C264.328 170.981 264.515 170.91 264.761 170.91C265.002 170.91 265.187 170.981 265.314 171.122C265.447 171.263 265.513 171.437 265.513 171.642C265.513 171.838 265.447 172.006 265.314 172.147C265.187 172.284 265.002 172.353 264.761 172.353C264.515 172.353 264.328 172.284 264.2 172.147C264.077 172.006 264.016 171.838 264.016 171.642ZM269.037 170.5V181H267.766V170.5H269.037ZM272.582 170.5V181H271.317V170.5H272.582ZM272.281 177.021L271.755 177.001C271.759 176.495 271.835 176.028 271.98 175.6C272.126 175.167 272.331 174.791 272.596 174.472C272.86 174.153 273.174 173.907 273.539 173.733C273.908 173.556 274.316 173.467 274.763 173.467C275.127 173.467 275.455 173.517 275.747 173.617C276.039 173.713 276.287 173.868 276.492 174.082C276.702 174.296 276.861 174.574 276.971 174.916C277.08 175.253 277.135 175.666 277.135 176.153V181H275.863V176.14C275.863 175.752 275.806 175.442 275.692 175.21C275.578 174.973 275.412 174.802 275.193 174.697C274.975 174.588 274.706 174.533 274.387 174.533C274.072 174.533 273.785 174.599 273.525 174.731C273.27 174.864 273.049 175.046 272.862 175.278C272.68 175.511 272.536 175.777 272.432 176.078C272.331 176.374 272.281 176.689 272.281 177.021ZM283.64 179.735V175.928C283.64 175.636 283.58 175.383 283.462 175.169C283.348 174.95 283.175 174.782 282.942 174.663C282.71 174.545 282.423 174.485 282.081 174.485C281.762 174.485 281.482 174.54 281.24 174.649C281.003 174.759 280.816 174.902 280.68 175.08C280.548 175.258 280.481 175.449 280.481 175.654H279.217C279.217 175.39 279.285 175.128 279.422 174.868C279.559 174.608 279.755 174.374 280.01 174.164C280.27 173.95 280.579 173.781 280.939 173.658C281.304 173.531 281.71 173.467 282.156 173.467C282.694 173.467 283.168 173.558 283.578 173.74C283.993 173.923 284.316 174.198 284.549 174.567C284.786 174.932 284.904 175.39 284.904 175.941V179.387C284.904 179.633 284.925 179.895 284.966 180.173C285.011 180.451 285.077 180.69 285.164 180.891V181H283.845C283.781 180.854 283.731 180.66 283.694 180.419C283.658 180.173 283.64 179.945 283.64 179.735ZM283.858 176.516L283.872 177.404H282.594C282.234 177.404 281.912 177.434 281.63 177.493C281.347 177.548 281.11 177.632 280.919 177.746C280.728 177.86 280.582 178.004 280.481 178.177C280.381 178.345 280.331 178.544 280.331 178.771C280.331 179.004 280.383 179.216 280.488 179.407C280.593 179.599 280.75 179.751 280.96 179.865C281.174 179.975 281.436 180.029 281.746 180.029C282.133 180.029 282.475 179.947 282.771 179.783C283.068 179.619 283.302 179.419 283.476 179.182C283.653 178.945 283.749 178.715 283.763 178.491L284.303 179.1C284.271 179.291 284.184 179.503 284.043 179.735C283.902 179.968 283.713 180.191 283.476 180.405C283.243 180.615 282.965 180.79 282.642 180.932C282.323 181.068 281.963 181.137 281.562 181.137C281.06 181.137 280.62 181.039 280.242 180.843C279.868 180.647 279.577 180.385 279.367 180.057C279.162 179.724 279.06 179.353 279.06 178.942C279.06 178.546 279.137 178.197 279.292 177.896C279.447 177.591 279.67 177.338 279.962 177.138C280.254 176.933 280.604 176.778 281.015 176.673C281.425 176.568 281.883 176.516 282.389 176.516H283.858ZM288.408 174.766V181H287.144V173.604H288.374L288.408 174.766ZM290.719 173.562L290.712 174.738C290.607 174.715 290.507 174.702 290.411 174.697C290.32 174.688 290.215 174.684 290.097 174.684C289.805 174.684 289.548 174.729 289.324 174.82C289.101 174.911 288.912 175.039 288.757 175.203C288.602 175.367 288.479 175.563 288.388 175.791C288.301 176.014 288.244 176.26 288.217 176.529L287.861 176.734C287.861 176.288 287.905 175.868 287.991 175.477C288.082 175.085 288.221 174.738 288.408 174.438C288.595 174.132 288.832 173.895 289.119 173.727C289.411 173.553 289.757 173.467 290.158 173.467C290.249 173.467 290.354 173.478 290.473 173.501C290.591 173.519 290.673 173.54 290.719 173.562ZM295.07 181.137C294.555 181.137 294.088 181.05 293.669 180.877C293.254 180.699 292.896 180.451 292.596 180.132C292.299 179.813 292.072 179.435 291.912 178.997C291.753 178.56 291.673 178.081 291.673 177.562V177.274C291.673 176.673 291.762 176.137 291.939 175.668C292.117 175.194 292.359 174.793 292.664 174.465C292.969 174.137 293.316 173.888 293.703 173.72C294.09 173.551 294.492 173.467 294.906 173.467C295.435 173.467 295.891 173.558 296.273 173.74C296.661 173.923 296.978 174.178 297.224 174.506C297.47 174.829 297.652 175.212 297.771 175.654C297.889 176.092 297.948 176.57 297.948 177.09V177.657H292.425V176.625H296.684V176.529C296.665 176.201 296.597 175.882 296.479 175.572C296.365 175.262 296.182 175.007 295.932 174.807C295.681 174.606 295.339 174.506 294.906 174.506C294.619 174.506 294.355 174.567 294.113 174.69C293.872 174.809 293.664 174.987 293.491 175.224C293.318 175.461 293.184 175.75 293.088 176.092C292.992 176.434 292.944 176.828 292.944 177.274V177.562C292.944 177.912 292.992 178.243 293.088 178.553C293.188 178.858 293.332 179.127 293.519 179.359C293.71 179.592 293.94 179.774 294.209 179.906C294.482 180.038 294.792 180.104 295.139 180.104C295.585 180.104 295.964 180.013 296.273 179.831C296.583 179.649 296.854 179.405 297.087 179.1L297.853 179.708C297.693 179.95 297.49 180.18 297.244 180.398C296.998 180.617 296.695 180.795 296.335 180.932C295.979 181.068 295.558 181.137 295.07 181.137ZM303.981 179.038C303.981 178.856 303.94 178.687 303.858 178.532C303.781 178.373 303.619 178.229 303.373 178.102C303.132 177.969 302.767 177.855 302.279 177.76C301.869 177.673 301.498 177.571 301.165 177.452C300.837 177.334 300.557 177.19 300.324 177.021C300.096 176.853 299.921 176.655 299.798 176.427C299.675 176.199 299.613 175.932 299.613 175.627C299.613 175.335 299.677 175.06 299.805 174.8C299.937 174.54 300.121 174.31 300.358 174.109C300.6 173.909 300.889 173.752 301.227 173.638C301.564 173.524 301.94 173.467 302.354 173.467C302.947 173.467 303.453 173.572 303.872 173.781C304.291 173.991 304.613 174.271 304.836 174.622C305.059 174.968 305.171 175.354 305.171 175.777H303.906C303.906 175.572 303.845 175.374 303.722 175.183C303.603 174.987 303.428 174.825 303.195 174.697C302.967 174.57 302.687 174.506 302.354 174.506C302.004 174.506 301.719 174.561 301.5 174.67C301.286 174.775 301.129 174.909 301.028 175.073C300.933 175.237 300.885 175.41 300.885 175.593C300.885 175.729 300.908 175.853 300.953 175.962C301.003 176.067 301.09 176.165 301.213 176.256C301.336 176.342 301.509 176.424 301.732 176.502C301.956 176.579 302.241 176.657 302.587 176.734C303.193 176.871 303.692 177.035 304.084 177.227C304.476 177.418 304.768 177.653 304.959 177.931C305.15 178.209 305.246 178.546 305.246 178.942C305.246 179.266 305.178 179.562 305.041 179.831C304.909 180.1 304.715 180.332 304.46 180.528C304.209 180.72 303.909 180.87 303.558 180.979C303.211 181.084 302.822 181.137 302.389 181.137C301.737 181.137 301.186 181.021 300.734 180.788C300.283 180.556 299.941 180.255 299.709 179.886C299.477 179.517 299.36 179.127 299.36 178.717H300.632C300.65 179.063 300.75 179.339 300.933 179.544C301.115 179.744 301.338 179.888 301.603 179.975C301.867 180.057 302.129 180.098 302.389 180.098C302.735 180.098 303.024 180.052 303.257 179.961C303.494 179.87 303.674 179.744 303.797 179.585C303.92 179.425 303.981 179.243 303.981 179.038ZM315.542 179.564V170.5H316.813V181H315.651L315.542 179.564ZM310.565 177.384V177.24C310.565 176.675 310.634 176.162 310.771 175.702C310.912 175.237 311.11 174.839 311.365 174.506C311.625 174.173 311.933 173.918 312.288 173.74C312.648 173.558 313.049 173.467 313.491 173.467C313.956 173.467 314.362 173.549 314.708 173.713C315.059 173.872 315.355 174.107 315.597 174.417C315.843 174.722 316.036 175.091 316.178 175.524C316.319 175.957 316.417 176.447 316.472 176.994V177.623C316.422 178.165 316.324 178.653 316.178 179.086C316.036 179.519 315.843 179.888 315.597 180.193C315.355 180.499 315.059 180.733 314.708 180.897C314.357 181.057 313.947 181.137 313.478 181.137C313.045 181.137 312.648 181.043 312.288 180.856C311.933 180.67 311.625 180.408 311.365 180.07C311.11 179.733 310.912 179.337 310.771 178.881C310.634 178.421 310.565 177.922 310.565 177.384ZM311.837 177.24V177.384C311.837 177.753 311.873 178.099 311.946 178.423C312.024 178.746 312.142 179.031 312.302 179.277C312.461 179.523 312.664 179.717 312.91 179.858C313.156 179.995 313.45 180.063 313.792 180.063C314.211 180.063 314.555 179.975 314.824 179.797C315.098 179.619 315.316 179.384 315.48 179.093C315.645 178.801 315.772 178.484 315.863 178.143V176.495C315.809 176.244 315.729 176.003 315.624 175.771C315.524 175.534 315.392 175.324 315.228 175.142C315.068 174.955 314.87 174.807 314.633 174.697C314.4 174.588 314.125 174.533 313.806 174.533C313.459 174.533 313.161 174.606 312.91 174.752C312.664 174.893 312.461 175.089 312.302 175.34C312.142 175.586 312.024 175.873 311.946 176.201C311.873 176.525 311.837 176.871 311.837 177.24ZM322.102 181.137C321.587 181.137 321.119 181.05 320.7 180.877C320.285 180.699 319.928 180.451 319.627 180.132C319.331 179.813 319.103 179.435 318.943 178.997C318.784 178.56 318.704 178.081 318.704 177.562V177.274C318.704 176.673 318.793 176.137 318.971 175.668C319.148 175.194 319.39 174.793 319.695 174.465C320.001 174.137 320.347 173.888 320.734 173.72C321.122 173.551 321.523 173.467 321.938 173.467C322.466 173.467 322.922 173.558 323.305 173.74C323.692 173.923 324.009 174.178 324.255 174.506C324.501 174.829 324.683 175.212 324.802 175.654C324.92 176.092 324.979 176.57 324.979 177.09V177.657H319.456V176.625H323.715V176.529C323.697 176.201 323.628 175.882 323.51 175.572C323.396 175.262 323.214 175.007 322.963 174.807C322.712 174.606 322.37 174.506 321.938 174.506C321.65 174.506 321.386 174.567 321.145 174.69C320.903 174.809 320.696 174.987 320.522 175.224C320.349 175.461 320.215 175.75 320.119 176.092C320.023 176.434 319.976 176.828 319.976 177.274V177.562C319.976 177.912 320.023 178.243 320.119 178.553C320.219 178.858 320.363 179.127 320.55 179.359C320.741 179.592 320.971 179.774 321.24 179.906C321.514 180.038 321.824 180.104 322.17 180.104C322.617 180.104 322.995 180.013 323.305 179.831C323.615 179.649 323.886 179.405 324.118 179.1L324.884 179.708C324.724 179.95 324.521 180.18 324.275 180.398C324.029 180.617 323.726 180.795 323.366 180.932C323.011 181.068 322.589 181.137 322.102 181.137ZM62.2285 189.025V197.844H60.957V187.604H62.1191L62.2285 189.025ZM67.2119 191.24V191.384C67.2119 191.922 67.1481 192.421 67.0205 192.881C66.8929 193.337 66.7061 193.733 66.46 194.07C66.2184 194.408 65.9199 194.67 65.5645 194.856C65.209 195.043 64.8011 195.137 64.3408 195.137C63.8714 195.137 63.4567 195.059 63.0967 194.904C62.7367 194.749 62.4313 194.524 62.1807 194.228C61.93 193.931 61.7295 193.576 61.5791 193.161C61.4333 192.746 61.333 192.279 61.2783 191.76V190.994C61.333 190.447 61.4355 189.957 61.5859 189.524C61.7363 189.091 61.9346 188.722 62.1807 188.417C62.4313 188.107 62.7344 187.872 63.0898 187.713C63.4453 187.549 63.8555 187.467 64.3203 187.467C64.7852 187.467 65.1976 187.558 65.5576 187.74C65.9176 187.918 66.2207 188.173 66.4668 188.506C66.7129 188.839 66.8975 189.237 67.0205 189.702C67.1481 190.162 67.2119 190.675 67.2119 191.24ZM65.9404 191.384V191.24C65.9404 190.871 65.9017 190.525 65.8242 190.201C65.7467 189.873 65.626 189.586 65.4619 189.34C65.3024 189.089 65.0973 188.893 64.8467 188.752C64.596 188.606 64.2975 188.533 63.9512 188.533C63.6322 188.533 63.3542 188.588 63.1172 188.697C62.8848 188.807 62.6865 188.955 62.5225 189.142C62.3584 189.324 62.224 189.534 62.1191 189.771C62.0189 190.003 61.9437 190.244 61.8936 190.495V192.266C61.9847 192.585 62.1123 192.885 62.2764 193.168C62.4404 193.446 62.6592 193.672 62.9326 193.845C63.2061 194.013 63.5501 194.098 63.9648 194.098C64.3066 194.098 64.6006 194.027 64.8467 193.886C65.0973 193.74 65.3024 193.542 65.4619 193.291C65.626 193.04 65.7467 192.753 65.8242 192.43C65.9017 192.102 65.9404 191.753 65.9404 191.384ZM72.1445 195.137C71.6296 195.137 71.1624 195.05 70.7432 194.877C70.3285 194.699 69.9707 194.451 69.6699 194.132C69.3737 193.813 69.1458 193.435 68.9863 192.997C68.8268 192.56 68.7471 192.081 68.7471 191.562V191.274C68.7471 190.673 68.8359 190.137 69.0137 189.668C69.1914 189.194 69.4329 188.793 69.7383 188.465C70.0436 188.137 70.39 187.888 70.7773 187.72C71.1647 187.551 71.5658 187.467 71.9805 187.467C72.5091 187.467 72.9648 187.558 73.3477 187.74C73.735 187.923 74.0518 188.178 74.2979 188.506C74.5439 188.829 74.7262 189.212 74.8447 189.654C74.9632 190.092 75.0225 190.57 75.0225 191.09V191.657H69.499V190.625H73.7578V190.529C73.7396 190.201 73.6712 189.882 73.5527 189.572C73.4388 189.262 73.2565 189.007 73.0059 188.807C72.7552 188.606 72.4134 188.506 71.9805 188.506C71.6934 188.506 71.429 188.567 71.1875 188.69C70.946 188.809 70.7386 188.987 70.5654 189.224C70.3923 189.461 70.2578 189.75 70.1621 190.092C70.0664 190.434 70.0186 190.828 70.0186 191.274V191.562C70.0186 191.912 70.0664 192.243 70.1621 192.553C70.2624 192.858 70.4059 193.127 70.5928 193.359C70.7842 193.592 71.0143 193.774 71.2832 193.906C71.5566 194.038 71.8665 194.104 72.2129 194.104C72.6595 194.104 73.0378 194.013 73.3477 193.831C73.6576 193.649 73.9287 193.405 74.1611 193.1L74.9268 193.708C74.7673 193.95 74.5645 194.18 74.3184 194.398C74.0723 194.617 73.7692 194.795 73.4092 194.932C73.0537 195.068 72.6322 195.137 72.1445 195.137ZM81.0557 193.038C81.0557 192.856 81.0146 192.687 80.9326 192.532C80.8551 192.373 80.6934 192.229 80.4473 192.102C80.2057 191.969 79.8411 191.855 79.3535 191.76C78.9434 191.673 78.5719 191.571 78.2393 191.452C77.9111 191.334 77.6309 191.19 77.3984 191.021C77.1706 190.853 76.9951 190.655 76.8721 190.427C76.749 190.199 76.6875 189.932 76.6875 189.627C76.6875 189.335 76.7513 189.06 76.8789 188.8C77.0111 188.54 77.1956 188.31 77.4326 188.109C77.6742 187.909 77.9635 187.752 78.3008 187.638C78.638 187.524 79.014 187.467 79.4287 187.467C80.0212 187.467 80.527 187.572 80.9463 187.781C81.3656 187.991 81.6868 188.271 81.9102 188.622C82.1335 188.968 82.2451 189.354 82.2451 189.777H80.9805C80.9805 189.572 80.9189 189.374 80.7959 189.183C80.6774 188.987 80.502 188.825 80.2695 188.697C80.0417 188.57 79.7614 188.506 79.4287 188.506C79.0778 188.506 78.793 188.561 78.5742 188.67C78.36 188.775 78.2028 188.909 78.1025 189.073C78.0068 189.237 77.959 189.41 77.959 189.593C77.959 189.729 77.9818 189.853 78.0273 189.962C78.0775 190.067 78.1641 190.165 78.2871 190.256C78.4102 190.342 78.5833 190.424 78.8066 190.502C79.0299 190.579 79.3148 190.657 79.6611 190.734C80.2673 190.871 80.7663 191.035 81.1582 191.227C81.5501 191.418 81.8418 191.653 82.0332 191.931C82.2246 192.209 82.3203 192.546 82.3203 192.942C82.3203 193.266 82.252 193.562 82.1152 193.831C81.9831 194.1 81.7894 194.332 81.5342 194.528C81.2835 194.72 80.9827 194.87 80.6318 194.979C80.2855 195.084 79.8958 195.137 79.4629 195.137C78.8112 195.137 78.2598 195.021 77.8086 194.788C77.3574 194.556 77.0156 194.255 76.7832 193.886C76.5508 193.517 76.4346 193.127 76.4346 192.717H77.7061C77.7243 193.063 77.8245 193.339 78.0068 193.544C78.1891 193.744 78.4124 193.888 78.6768 193.975C78.9411 194.057 79.2031 194.098 79.4629 194.098C79.8092 194.098 80.0986 194.052 80.3311 193.961C80.568 193.87 80.748 193.744 80.8711 193.585C80.9941 193.425 81.0557 193.243 81.0557 193.038ZM88.5381 193.038C88.5381 192.856 88.4971 192.687 88.415 192.532C88.3376 192.373 88.1758 192.229 87.9297 192.102C87.6882 191.969 87.3236 191.855 86.8359 191.76C86.4258 191.673 86.0544 191.571 85.7217 191.452C85.3936 191.334 85.1133 191.19 84.8809 191.021C84.653 190.853 84.4775 190.655 84.3545 190.427C84.2314 190.199 84.1699 189.932 84.1699 189.627C84.1699 189.335 84.2337 189.06 84.3613 188.8C84.4935 188.54 84.6781 188.31 84.915 188.109C85.1566 187.909 85.446 187.752 85.7832 187.638C86.1204 187.524 86.4964 187.467 86.9111 187.467C87.5036 187.467 88.0094 187.572 88.4287 187.781C88.848 187.991 89.1693 188.271 89.3926 188.622C89.6159 188.968 89.7275 189.354 89.7275 189.777H88.4629C88.4629 189.572 88.4014 189.374 88.2783 189.183C88.1598 188.987 87.9844 188.825 87.752 188.697C87.5241 188.57 87.2438 188.506 86.9111 188.506C86.5602 188.506 86.2754 188.561 86.0566 188.67C85.8424 188.775 85.6852 188.909 85.585 189.073C85.4893 189.237 85.4414 189.41 85.4414 189.593C85.4414 189.729 85.4642 189.853 85.5098 189.962C85.5599 190.067 85.6465 190.165 85.7695 190.256C85.8926 190.342 86.0658 190.424 86.2891 190.502C86.5124 190.579 86.7972 190.657 87.1436 190.734C87.7497 190.871 88.2487 191.035 88.6406 191.227C89.0326 191.418 89.3242 191.653 89.5156 191.931C89.707 192.209 89.8027 192.546 89.8027 192.942C89.8027 193.266 89.7344 193.562 89.5977 193.831C89.4655 194.1 89.2718 194.332 89.0166 194.528C88.766 194.72 88.4652 194.87 88.1143 194.979C87.7679 195.084 87.3783 195.137 86.9453 195.137C86.2936 195.137 85.7422 195.021 85.291 194.788C84.8398 194.556 84.498 194.255 84.2656 193.886C84.0332 193.517 83.917 193.127 83.917 192.717H85.1885C85.2067 193.063 85.307 193.339 85.4893 193.544C85.6715 193.744 85.8949 193.888 86.1592 193.975C86.4235 194.057 86.6855 194.098 86.9453 194.098C87.2917 194.098 87.5811 194.052 87.8135 193.961C88.0505 193.87 88.2305 193.744 88.3535 193.585C88.4766 193.425 88.5381 193.243 88.5381 193.038ZM91.3789 191.384V191.227C91.3789 190.693 91.4564 190.199 91.6113 189.743C91.7663 189.283 91.9896 188.884 92.2812 188.547C92.5729 188.205 92.9261 187.941 93.3408 187.754C93.7555 187.562 94.2204 187.467 94.7354 187.467C95.2549 187.467 95.722 187.562 96.1367 187.754C96.556 187.941 96.9115 188.205 97.2031 188.547C97.4993 188.884 97.7249 189.283 97.8799 189.743C98.0348 190.199 98.1123 190.693 98.1123 191.227V191.384C98.1123 191.917 98.0348 192.411 97.8799 192.867C97.7249 193.323 97.4993 193.722 97.2031 194.063C96.9115 194.401 96.5583 194.665 96.1436 194.856C95.7334 195.043 95.2686 195.137 94.749 195.137C94.2295 195.137 93.7624 195.043 93.3477 194.856C92.9329 194.665 92.5775 194.401 92.2812 194.063C91.9896 193.722 91.7663 193.323 91.6113 192.867C91.4564 192.411 91.3789 191.917 91.3789 191.384ZM92.6436 191.227V191.384C92.6436 191.753 92.6868 192.102 92.7734 192.43C92.86 192.753 92.9899 193.04 93.1631 193.291C93.3408 193.542 93.5618 193.74 93.8262 193.886C94.0905 194.027 94.3981 194.098 94.749 194.098C95.0954 194.098 95.3984 194.027 95.6582 193.886C95.9225 193.74 96.1413 193.542 96.3145 193.291C96.4876 193.04 96.6175 192.753 96.7041 192.43C96.7952 192.102 96.8408 191.753 96.8408 191.384V191.227C96.8408 190.862 96.7952 190.518 96.7041 190.194C96.6175 189.866 96.4854 189.577 96.3076 189.326C96.1344 189.071 95.9157 188.87 95.6514 188.725C95.3916 188.579 95.0863 188.506 94.7354 188.506C94.389 188.506 94.0837 188.579 93.8193 188.725C93.5596 188.87 93.3408 189.071 93.1631 189.326C92.9899 189.577 92.86 189.866 92.7734 190.194C92.6868 190.518 92.6436 190.862 92.6436 191.227ZM104.31 193.735V189.928C104.31 189.636 104.25 189.383 104.132 189.169C104.018 188.95 103.845 188.782 103.612 188.663C103.38 188.545 103.093 188.485 102.751 188.485C102.432 188.485 102.152 188.54 101.91 188.649C101.673 188.759 101.486 188.902 101.35 189.08C101.217 189.258 101.151 189.449 101.151 189.654H99.8867C99.8867 189.39 99.9551 189.128 100.092 188.868C100.229 188.608 100.424 188.374 100.68 188.164C100.939 187.95 101.249 187.781 101.609 187.658C101.974 187.531 102.38 187.467 102.826 187.467C103.364 187.467 103.838 187.558 104.248 187.74C104.663 187.923 104.986 188.198 105.219 188.567C105.456 188.932 105.574 189.39 105.574 189.941V193.387C105.574 193.633 105.595 193.895 105.636 194.173C105.681 194.451 105.747 194.69 105.834 194.891V195H104.515C104.451 194.854 104.401 194.66 104.364 194.419C104.328 194.173 104.31 193.945 104.31 193.735ZM104.528 190.516L104.542 191.404H103.264C102.904 191.404 102.582 191.434 102.3 191.493C102.017 191.548 101.78 191.632 101.589 191.746C101.397 191.86 101.252 192.004 101.151 192.177C101.051 192.345 101.001 192.544 101.001 192.771C101.001 193.004 101.053 193.216 101.158 193.407C101.263 193.599 101.42 193.751 101.63 193.865C101.844 193.975 102.106 194.029 102.416 194.029C102.803 194.029 103.145 193.947 103.441 193.783C103.738 193.619 103.972 193.419 104.146 193.182C104.323 192.945 104.419 192.715 104.433 192.491L104.973 193.1C104.941 193.291 104.854 193.503 104.713 193.735C104.572 193.968 104.382 194.191 104.146 194.405C103.913 194.615 103.635 194.79 103.312 194.932C102.993 195.068 102.632 195.137 102.231 195.137C101.73 195.137 101.29 195.039 100.912 194.843C100.538 194.647 100.247 194.385 100.037 194.057C99.832 193.724 99.7295 193.353 99.7295 192.942C99.7295 192.546 99.807 192.197 99.9619 191.896C100.117 191.591 100.34 191.338 100.632 191.138C100.924 190.933 101.274 190.778 101.685 190.673C102.095 190.568 102.553 190.516 103.059 190.516H104.528ZM112.12 193.038C112.12 192.856 112.079 192.687 111.997 192.532C111.92 192.373 111.758 192.229 111.512 192.102C111.27 191.969 110.906 191.855 110.418 191.76C110.008 191.673 109.636 191.571 109.304 191.452C108.976 191.334 108.695 191.19 108.463 191.021C108.235 190.853 108.06 190.655 107.937 190.427C107.813 190.199 107.752 189.932 107.752 189.627C107.752 189.335 107.816 189.06 107.943 188.8C108.076 188.54 108.26 188.31 108.497 188.109C108.739 187.909 109.028 187.752 109.365 187.638C109.702 187.524 110.078 187.467 110.493 187.467C111.086 187.467 111.591 187.572 112.011 187.781C112.43 187.991 112.751 188.271 112.975 188.622C113.198 188.968 113.31 189.354 113.31 189.777H112.045C112.045 189.572 111.983 189.374 111.86 189.183C111.742 188.987 111.566 188.825 111.334 188.697C111.106 188.57 110.826 188.506 110.493 188.506C110.142 188.506 109.857 188.561 109.639 188.67C109.424 188.775 109.267 188.909 109.167 189.073C109.071 189.237 109.023 189.41 109.023 189.593C109.023 189.729 109.046 189.853 109.092 189.962C109.142 190.067 109.229 190.165 109.352 190.256C109.475 190.342 109.648 190.424 109.871 190.502C110.094 190.579 110.379 190.657 110.726 190.734C111.332 190.871 111.831 191.035 112.223 191.227C112.615 191.418 112.906 191.653 113.098 191.931C113.289 192.209 113.385 192.546 113.385 192.942C113.385 193.266 113.316 193.562 113.18 193.831C113.048 194.1 112.854 194.332 112.599 194.528C112.348 194.72 112.047 194.87 111.696 194.979C111.35 195.084 110.96 195.137 110.527 195.137C109.876 195.137 109.324 195.021 108.873 194.788C108.422 194.556 108.08 194.255 107.848 193.886C107.615 193.517 107.499 193.127 107.499 192.717H108.771C108.789 193.063 108.889 193.339 109.071 193.544C109.254 193.744 109.477 193.888 109.741 193.975C110.006 194.057 110.268 194.098 110.527 194.098C110.874 194.098 111.163 194.052 111.396 193.961C111.632 193.87 111.812 193.744 111.936 193.585C112.059 193.425 112.12 193.243 112.12 193.038Z" fill="#303133"/>
<defs>
<clipPath id="clip0_529_9785">
<rect width="46" height="46" fill="white" transform="translate(172 107)"/>
</clipPath>
</defs>
</svg>
