<svg width="389" height="258" viewBox="0 0 389 258" fill="none" xmlns="http://www.w3.org/2000/svg">
<path d="M0 4C0 1.79086 1.79086 0 4 0H385C387.209 0 389 1.79086 389 4V254C389 256.209 387.209 258 385 258H3.99999C1.79085 258 0 256.209 0 254V4Z" fill="#E6E9F2"/>
<path opacity="0.6" d="M67.5312 132.633L63.7656 143H62.2266L66.5625 131.625H67.5547L67.5312 132.633ZM70.6875 143L66.9141 132.633L66.8906 131.625H67.8828L72.2344 143H70.6875ZM70.4922 138.789V140.023H64.1016V138.789H70.4922ZM79.3672 141.359V131H80.8203V143H79.4922L79.3672 141.359ZM73.6797 138.867V138.703C73.6797 138.057 73.7578 137.471 73.9141 136.945C74.0755 136.414 74.3021 135.958 74.5938 135.578C74.8906 135.198 75.2422 134.906 75.6484 134.703C76.0599 134.495 76.5182 134.391 77.0234 134.391C77.5547 134.391 78.0182 134.484 78.4141 134.672C78.8151 134.854 79.1536 135.122 79.4297 135.477C79.7109 135.826 79.9323 136.247 80.0938 136.742C80.2552 137.237 80.3672 137.797 80.4297 138.422V139.141C80.3724 139.76 80.2604 140.318 80.0938 140.812C79.9323 141.307 79.7109 141.729 79.4297 142.078C79.1536 142.427 78.8151 142.695 78.4141 142.883C78.013 143.065 77.5443 143.156 77.0078 143.156C76.513 143.156 76.0599 143.049 75.6484 142.836C75.2422 142.622 74.8906 142.323 74.5938 141.938C74.3021 141.552 74.0755 141.099 73.9141 140.578C73.7578 140.052 73.6797 139.482 73.6797 138.867ZM75.1328 138.703V138.867C75.1328 139.289 75.1745 139.685 75.2578 140.055C75.3464 140.424 75.4818 140.75 75.6641 141.031C75.8464 141.312 76.0781 141.534 76.3594 141.695C76.6406 141.852 76.9766 141.93 77.3672 141.93C77.8464 141.93 78.2396 141.828 78.5469 141.625C78.8594 141.422 79.1094 141.154 79.2969 140.82C79.4844 140.487 79.6302 140.125 79.7344 139.734V137.852C79.6719 137.565 79.5807 137.289 79.4609 137.023C79.3464 136.753 79.1953 136.513 79.0078 136.305C78.8255 136.091 78.599 135.922 78.3281 135.797C78.0625 135.672 77.7474 135.609 77.3828 135.609C76.987 135.609 76.6458 135.693 76.3594 135.859C76.0781 136.021 75.8464 136.245 75.6641 136.531C75.4818 136.812 75.3464 137.141 75.2578 137.516C75.1745 137.885 75.1328 138.281 75.1328 138.703ZM85.1406 134.547V143H83.6875V134.547H85.1406ZM83.5781 132.305C83.5781 132.07 83.6484 131.872 83.7891 131.711C83.9349 131.549 84.1484 131.469 84.4297 131.469C84.7057 131.469 84.9167 131.549 85.0625 131.711C85.2135 131.872 85.2891 132.07 85.2891 132.305C85.2891 132.529 85.2135 132.721 85.0625 132.883C84.9167 133.039 84.7057 133.117 84.4297 133.117C84.1484 133.117 83.9349 133.039 83.7891 132.883C83.6484 132.721 83.5781 132.529 83.5781 132.305ZM91.3438 141.969C91.6875 141.969 92.0052 141.898 92.2969 141.758C92.5885 141.617 92.8281 141.424 93.0156 141.18C93.2031 140.93 93.3099 140.646 93.3359 140.328H94.7109C94.6849 140.828 94.5156 141.294 94.2031 141.727C93.8958 142.154 93.4922 142.5 92.9922 142.766C92.4922 143.026 91.9427 143.156 91.3438 143.156C90.7083 143.156 90.1536 143.044 89.6797 142.82C89.2109 142.596 88.8203 142.289 88.5078 141.898C88.2005 141.508 87.9688 141.06 87.8125 140.555C87.6615 140.044 87.5859 139.505 87.5859 138.938V138.609C87.5859 138.042 87.6615 137.505 87.8125 137C87.9688 136.49 88.2005 136.039 88.5078 135.648C88.8203 135.258 89.2109 134.951 89.6797 134.727C90.1536 134.503 90.7083 134.391 91.3438 134.391C92.0052 134.391 92.5833 134.526 93.0781 134.797C93.5729 135.062 93.9609 135.427 94.2422 135.891C94.5286 136.349 94.6849 136.87 94.7109 137.453H93.3359C93.3099 137.104 93.2109 136.789 93.0391 136.508C92.8724 136.227 92.6432 136.003 92.3516 135.836C92.0651 135.664 91.7292 135.578 91.3438 135.578C90.901 135.578 90.5286 135.667 90.2266 135.844C89.9297 136.016 89.6927 136.25 89.5156 136.547C89.3438 136.839 89.2188 137.164 89.1406 137.523C89.0677 137.878 89.0312 138.24 89.0312 138.609V138.938C89.0312 139.307 89.0677 139.672 89.1406 140.031C89.2135 140.391 89.3359 140.716 89.5078 141.008C89.6849 141.299 89.9219 141.534 90.2188 141.711C90.5208 141.883 90.8958 141.969 91.3438 141.969ZM98.4062 134.547V143H96.9531V134.547H98.4062ZM96.8438 132.305C96.8438 132.07 96.9141 131.872 97.0547 131.711C97.2005 131.549 97.4141 131.469 97.6953 131.469C97.9714 131.469 98.1823 131.549 98.3281 131.711C98.4792 131.872 98.5547 132.07 98.5547 132.305C98.5547 132.529 98.4792 132.721 98.3281 132.883C98.1823 133.039 97.9714 133.117 97.6953 133.117C97.4141 133.117 97.2005 133.039 97.0547 132.883C96.9141 132.721 96.8438 132.529 96.8438 132.305ZM100.844 138.867V138.688C100.844 138.078 100.932 137.513 101.109 136.992C101.286 136.466 101.542 136.01 101.875 135.625C102.208 135.234 102.612 134.932 103.086 134.719C103.56 134.5 104.091 134.391 104.68 134.391C105.273 134.391 105.807 134.5 106.281 134.719C106.76 134.932 107.167 135.234 107.5 135.625C107.839 136.01 108.096 136.466 108.273 136.992C108.451 137.513 108.539 138.078 108.539 138.688V138.867C108.539 139.477 108.451 140.042 108.273 140.562C108.096 141.083 107.839 141.539 107.5 141.93C107.167 142.315 106.763 142.617 106.289 142.836C105.82 143.049 105.289 143.156 104.695 143.156C104.102 143.156 103.568 143.049 103.094 142.836C102.62 142.617 102.214 142.315 101.875 141.93C101.542 141.539 101.286 141.083 101.109 140.562C100.932 140.042 100.844 139.477 100.844 138.867ZM102.289 138.688V138.867C102.289 139.289 102.339 139.688 102.438 140.062C102.536 140.432 102.685 140.76 102.883 141.047C103.086 141.333 103.339 141.56 103.641 141.727C103.943 141.888 104.294 141.969 104.695 141.969C105.091 141.969 105.438 141.888 105.734 141.727C106.036 141.56 106.286 141.333 106.484 141.047C106.682 140.76 106.831 140.432 106.93 140.062C107.034 139.688 107.086 139.289 107.086 138.867V138.688C107.086 138.271 107.034 137.878 106.93 137.508C106.831 137.133 106.68 136.802 106.477 136.516C106.279 136.224 106.029 135.995 105.727 135.828C105.43 135.661 105.081 135.578 104.68 135.578C104.284 135.578 103.935 135.661 103.633 135.828C103.336 135.995 103.086 136.224 102.883 136.516C102.685 136.802 102.536 137.133 102.438 137.508C102.339 137.878 102.289 138.271 102.289 138.688ZM112.297 136.352V143H110.852V134.547H112.219L112.297 136.352ZM111.953 138.453L111.352 138.43C111.357 137.852 111.443 137.318 111.609 136.828C111.776 136.333 112.01 135.904 112.312 135.539C112.615 135.174 112.974 134.893 113.391 134.695C113.812 134.492 114.279 134.391 114.789 134.391C115.206 134.391 115.581 134.448 115.914 134.562C116.247 134.672 116.531 134.849 116.766 135.094C117.005 135.339 117.188 135.656 117.312 136.047C117.438 136.432 117.5 136.904 117.5 137.461V143H116.047V137.445C116.047 137.003 115.982 136.648 115.852 136.383C115.721 136.112 115.531 135.917 115.281 135.797C115.031 135.672 114.724 135.609 114.359 135.609C114 135.609 113.672 135.685 113.375 135.836C113.083 135.987 112.831 136.195 112.617 136.461C112.409 136.727 112.245 137.031 112.125 137.375C112.01 137.714 111.953 138.073 111.953 138.453ZM123.703 143.156C123.115 143.156 122.581 143.057 122.102 142.859C121.628 142.656 121.219 142.372 120.875 142.008C120.536 141.643 120.276 141.211 120.094 140.711C119.911 140.211 119.82 139.664 119.82 139.07V138.742C119.82 138.055 119.922 137.443 120.125 136.906C120.328 136.365 120.604 135.906 120.953 135.531C121.302 135.156 121.698 134.872 122.141 134.68C122.583 134.487 123.042 134.391 123.516 134.391C124.12 134.391 124.641 134.495 125.078 134.703C125.521 134.911 125.883 135.203 126.164 135.578C126.445 135.948 126.654 136.385 126.789 136.891C126.924 137.391 126.992 137.938 126.992 138.531V139.18H120.68V138H125.547V137.891C125.526 137.516 125.448 137.151 125.312 136.797C125.182 136.443 124.974 136.151 124.688 135.922C124.401 135.693 124.01 135.578 123.516 135.578C123.188 135.578 122.885 135.648 122.609 135.789C122.333 135.924 122.096 136.128 121.898 136.398C121.701 136.669 121.547 137 121.438 137.391C121.328 137.781 121.273 138.232 121.273 138.742V139.07C121.273 139.471 121.328 139.849 121.438 140.203C121.552 140.552 121.716 140.859 121.93 141.125C122.148 141.391 122.411 141.599 122.719 141.75C123.031 141.901 123.385 141.977 123.781 141.977C124.292 141.977 124.724 141.872 125.078 141.664C125.432 141.456 125.742 141.177 126.008 140.828L126.883 141.523C126.701 141.799 126.469 142.062 126.188 142.312C125.906 142.562 125.56 142.766 125.148 142.922C124.742 143.078 124.26 143.156 123.703 143.156ZM138.57 140.758C138.57 140.549 138.523 140.357 138.43 140.18C138.341 139.997 138.156 139.833 137.875 139.688C137.599 139.536 137.182 139.406 136.625 139.297C136.156 139.198 135.732 139.081 135.352 138.945C134.977 138.81 134.656 138.646 134.391 138.453C134.13 138.26 133.93 138.034 133.789 137.773C133.648 137.513 133.578 137.208 133.578 136.859C133.578 136.526 133.651 136.211 133.797 135.914C133.948 135.617 134.159 135.354 134.43 135.125C134.706 134.896 135.036 134.716 135.422 134.586C135.807 134.456 136.237 134.391 136.711 134.391C137.388 134.391 137.966 134.51 138.445 134.75C138.924 134.99 139.292 135.31 139.547 135.711C139.802 136.107 139.93 136.547 139.93 137.031H138.484C138.484 136.797 138.414 136.57 138.273 136.352C138.138 136.128 137.938 135.943 137.672 135.797C137.411 135.651 137.091 135.578 136.711 135.578C136.31 135.578 135.984 135.641 135.734 135.766C135.49 135.885 135.31 136.039 135.195 136.227C135.086 136.414 135.031 136.612 135.031 136.82C135.031 136.977 135.057 137.117 135.109 137.242C135.167 137.362 135.266 137.474 135.406 137.578C135.547 137.677 135.745 137.771 136 137.859C136.255 137.948 136.581 138.036 136.977 138.125C137.669 138.281 138.24 138.469 138.688 138.688C139.135 138.906 139.469 139.174 139.688 139.492C139.906 139.81 140.016 140.195 140.016 140.648C140.016 141.018 139.938 141.357 139.781 141.664C139.63 141.971 139.409 142.237 139.117 142.461C138.831 142.68 138.487 142.852 138.086 142.977C137.69 143.096 137.245 143.156 136.75 143.156C136.005 143.156 135.375 143.023 134.859 142.758C134.344 142.492 133.953 142.148 133.688 141.727C133.422 141.305 133.289 140.859 133.289 140.391H134.742C134.763 140.786 134.878 141.102 135.086 141.336C135.294 141.565 135.549 141.729 135.852 141.828C136.154 141.922 136.453 141.969 136.75 141.969C137.146 141.969 137.477 141.917 137.742 141.812C138.013 141.708 138.219 141.565 138.359 141.383C138.5 141.201 138.57 140.992 138.57 140.758ZM145.922 143.156C145.333 143.156 144.799 143.057 144.32 142.859C143.846 142.656 143.438 142.372 143.094 142.008C142.755 141.643 142.495 141.211 142.312 140.711C142.13 140.211 142.039 139.664 142.039 139.07V138.742C142.039 138.055 142.141 137.443 142.344 136.906C142.547 136.365 142.823 135.906 143.172 135.531C143.521 135.156 143.917 134.872 144.359 134.68C144.802 134.487 145.26 134.391 145.734 134.391C146.339 134.391 146.859 134.495 147.297 134.703C147.74 134.911 148.102 135.203 148.383 135.578C148.664 135.948 148.872 136.385 149.008 136.891C149.143 137.391 149.211 137.938 149.211 138.531V139.18H142.898V138H147.766V137.891C147.745 137.516 147.667 137.151 147.531 136.797C147.401 136.443 147.193 136.151 146.906 135.922C146.62 135.693 146.229 135.578 145.734 135.578C145.406 135.578 145.104 135.648 144.828 135.789C144.552 135.924 144.315 136.128 144.117 136.398C143.919 136.669 143.766 137 143.656 137.391C143.547 137.781 143.492 138.232 143.492 138.742V139.07C143.492 139.471 143.547 139.849 143.656 140.203C143.771 140.552 143.935 140.859 144.148 141.125C144.367 141.391 144.63 141.599 144.938 141.75C145.25 141.901 145.604 141.977 146 141.977C146.51 141.977 146.943 141.872 147.297 141.664C147.651 141.456 147.961 141.177 148.227 140.828L149.102 141.523C148.919 141.799 148.688 142.062 148.406 142.312C148.125 142.562 147.779 142.766 147.367 142.922C146.961 143.078 146.479 143.156 145.922 143.156ZM156.57 141.047V134.547H158.023V143H156.641L156.57 141.047ZM156.844 139.266L157.445 139.25C157.445 139.812 157.385 140.333 157.266 140.812C157.151 141.286 156.964 141.698 156.703 142.047C156.443 142.396 156.102 142.669 155.68 142.867C155.258 143.06 154.745 143.156 154.141 143.156C153.729 143.156 153.352 143.096 153.008 142.977C152.669 142.857 152.378 142.672 152.133 142.422C151.888 142.172 151.698 141.846 151.562 141.445C151.432 141.044 151.367 140.562 151.367 140V134.547H152.812V140.016C152.812 140.396 152.854 140.711 152.938 140.961C153.026 141.206 153.143 141.401 153.289 141.547C153.44 141.688 153.607 141.786 153.789 141.844C153.977 141.901 154.169 141.93 154.367 141.93C154.982 141.93 155.469 141.812 155.828 141.578C156.188 141.339 156.445 141.018 156.602 140.617C156.763 140.211 156.844 139.76 156.844 139.266ZM166.641 136.172V146.25H165.188V134.547H166.516L166.641 136.172ZM172.336 138.703V138.867C172.336 139.482 172.263 140.052 172.117 140.578C171.971 141.099 171.758 141.552 171.477 141.938C171.201 142.323 170.859 142.622 170.453 142.836C170.047 143.049 169.581 143.156 169.055 143.156C168.518 143.156 168.044 143.068 167.633 142.891C167.221 142.714 166.872 142.456 166.586 142.117C166.299 141.779 166.07 141.372 165.898 140.898C165.732 140.424 165.617 139.891 165.555 139.297V138.422C165.617 137.797 165.734 137.237 165.906 136.742C166.078 136.247 166.305 135.826 166.586 135.477C166.872 135.122 167.219 134.854 167.625 134.672C168.031 134.484 168.5 134.391 169.031 134.391C169.562 134.391 170.034 134.495 170.445 134.703C170.857 134.906 171.203 135.198 171.484 135.578C171.766 135.958 171.977 136.414 172.117 136.945C172.263 137.471 172.336 138.057 172.336 138.703ZM170.883 138.867V138.703C170.883 138.281 170.839 137.885 170.75 137.516C170.661 137.141 170.523 136.812 170.336 136.531C170.154 136.245 169.919 136.021 169.633 135.859C169.346 135.693 169.005 135.609 168.609 135.609C168.245 135.609 167.927 135.672 167.656 135.797C167.391 135.922 167.164 136.091 166.977 136.305C166.789 136.513 166.635 136.753 166.516 137.023C166.401 137.289 166.315 137.565 166.258 137.852V139.875C166.362 140.24 166.508 140.583 166.695 140.906C166.883 141.224 167.133 141.482 167.445 141.68C167.758 141.872 168.151 141.969 168.625 141.969C169.016 141.969 169.352 141.888 169.633 141.727C169.919 141.56 170.154 141.333 170.336 141.047C170.523 140.76 170.661 140.432 170.75 140.062C170.839 139.688 170.883 139.289 170.883 138.867ZM176.125 135.875V143H174.68V134.547H176.086L176.125 135.875ZM178.766 134.5L178.758 135.844C178.638 135.818 178.523 135.802 178.414 135.797C178.31 135.786 178.19 135.781 178.055 135.781C177.721 135.781 177.427 135.833 177.172 135.938C176.917 136.042 176.701 136.188 176.523 136.375C176.346 136.562 176.206 136.786 176.102 137.047C176.003 137.302 175.938 137.583 175.906 137.891L175.5 138.125C175.5 137.615 175.549 137.135 175.648 136.688C175.753 136.24 175.911 135.844 176.125 135.5C176.339 135.151 176.609 134.88 176.938 134.688C177.271 134.49 177.667 134.391 178.125 134.391C178.229 134.391 178.349 134.404 178.484 134.43C178.62 134.451 178.714 134.474 178.766 134.5ZM182.172 134.547V143H180.719V134.547H182.172ZM180.609 132.305C180.609 132.07 180.68 131.872 180.82 131.711C180.966 131.549 181.18 131.469 181.461 131.469C181.737 131.469 181.948 131.549 182.094 131.711C182.245 131.872 182.32 132.07 182.32 132.305C182.32 132.529 182.245 132.721 182.094 132.883C181.948 133.039 181.737 133.117 181.461 133.117C181.18 133.117 180.966 133.039 180.82 132.883C180.68 132.721 180.609 132.529 180.609 132.305ZM186.43 136.227V143H184.977V134.547H186.352L186.43 136.227ZM186.133 138.453L185.461 138.43C185.466 137.852 185.542 137.318 185.688 136.828C185.833 136.333 186.049 135.904 186.336 135.539C186.622 135.174 186.979 134.893 187.406 134.695C187.833 134.492 188.328 134.391 188.891 134.391C189.286 134.391 189.651 134.448 189.984 134.562C190.318 134.672 190.607 134.846 190.852 135.086C191.096 135.326 191.286 135.633 191.422 136.008C191.557 136.383 191.625 136.836 191.625 137.367V143H190.18V137.438C190.18 136.995 190.104 136.641 189.953 136.375C189.807 136.109 189.599 135.917 189.328 135.797C189.057 135.672 188.74 135.609 188.375 135.609C187.948 135.609 187.591 135.685 187.305 135.836C187.018 135.987 186.789 136.195 186.617 136.461C186.445 136.727 186.32 137.031 186.242 137.375C186.169 137.714 186.133 138.073 186.133 138.453ZM191.609 137.656L190.641 137.953C190.646 137.49 190.721 137.044 190.867 136.617C191.018 136.19 191.234 135.81 191.516 135.477C191.802 135.143 192.154 134.88 192.57 134.688C192.987 134.49 193.464 134.391 194 134.391C194.453 134.391 194.854 134.451 195.203 134.57C195.557 134.69 195.854 134.875 196.094 135.125C196.339 135.37 196.523 135.685 196.648 136.07C196.773 136.456 196.836 136.914 196.836 137.445V143H195.383V137.43C195.383 136.956 195.307 136.589 195.156 136.328C195.01 136.062 194.802 135.878 194.531 135.773C194.266 135.664 193.948 135.609 193.578 135.609C193.26 135.609 192.979 135.664 192.734 135.773C192.49 135.883 192.284 136.034 192.117 136.227C191.951 136.414 191.823 136.63 191.734 136.875C191.651 137.12 191.609 137.38 191.609 137.656ZM203.031 143.156C202.443 143.156 201.909 143.057 201.43 142.859C200.956 142.656 200.547 142.372 200.203 142.008C199.865 141.643 199.604 141.211 199.422 140.711C199.24 140.211 199.148 139.664 199.148 139.07V138.742C199.148 138.055 199.25 137.443 199.453 136.906C199.656 136.365 199.932 135.906 200.281 135.531C200.63 135.156 201.026 134.872 201.469 134.68C201.911 134.487 202.37 134.391 202.844 134.391C203.448 134.391 203.969 134.495 204.406 134.703C204.849 134.911 205.211 135.203 205.492 135.578C205.773 135.948 205.982 136.385 206.117 136.891C206.253 137.391 206.32 137.938 206.32 138.531V139.18H200.008V138H204.875V137.891C204.854 137.516 204.776 137.151 204.641 136.797C204.51 136.443 204.302 136.151 204.016 135.922C203.729 135.693 203.339 135.578 202.844 135.578C202.516 135.578 202.214 135.648 201.938 135.789C201.661 135.924 201.424 136.128 201.227 136.398C201.029 136.669 200.875 137 200.766 137.391C200.656 137.781 200.602 138.232 200.602 138.742V139.07C200.602 139.471 200.656 139.849 200.766 140.203C200.88 140.552 201.044 140.859 201.258 141.125C201.477 141.391 201.74 141.599 202.047 141.75C202.359 141.901 202.714 141.977 203.109 141.977C203.62 141.977 204.052 141.872 204.406 141.664C204.76 141.456 205.07 141.177 205.336 140.828L206.211 141.523C206.029 141.799 205.797 142.062 205.516 142.312C205.234 142.562 204.888 142.766 204.477 142.922C204.07 143.078 203.589 143.156 203.031 143.156ZM210.078 134.547V143H208.625V134.547H210.078ZM208.516 132.305C208.516 132.07 208.586 131.872 208.727 131.711C208.872 131.549 209.086 131.469 209.367 131.469C209.643 131.469 209.854 131.549 210 131.711C210.151 131.872 210.227 132.07 210.227 132.305C210.227 132.529 210.151 132.721 210 132.883C209.854 133.039 209.643 133.117 209.367 133.117C209.086 133.117 208.872 133.039 208.727 132.883C208.586 132.721 208.516 132.529 208.516 132.305ZM214.344 135.875V143H212.898V134.547H214.305L214.344 135.875ZM216.984 134.5L216.977 135.844C216.857 135.818 216.742 135.802 216.633 135.797C216.529 135.786 216.409 135.781 216.273 135.781C215.94 135.781 215.646 135.833 215.391 135.938C215.135 136.042 214.919 136.188 214.742 136.375C214.565 136.562 214.424 136.786 214.32 137.047C214.221 137.302 214.156 137.583 214.125 137.891L213.719 138.125C213.719 137.615 213.768 137.135 213.867 136.688C213.971 136.24 214.13 135.844 214.344 135.5C214.557 135.151 214.828 134.88 215.156 134.688C215.49 134.49 215.885 134.391 216.344 134.391C216.448 134.391 216.568 134.404 216.703 134.43C216.839 134.451 216.932 134.474 216.984 134.5ZM218.281 138.867V138.688C218.281 138.078 218.37 137.513 218.547 136.992C218.724 136.466 218.979 136.01 219.312 135.625C219.646 135.234 220.049 134.932 220.523 134.719C220.997 134.5 221.529 134.391 222.117 134.391C222.711 134.391 223.245 134.5 223.719 134.719C224.198 134.932 224.604 135.234 224.938 135.625C225.276 136.01 225.534 136.466 225.711 136.992C225.888 137.513 225.977 138.078 225.977 138.688V138.867C225.977 139.477 225.888 140.042 225.711 140.562C225.534 141.083 225.276 141.539 224.938 141.93C224.604 142.315 224.201 142.617 223.727 142.836C223.258 143.049 222.727 143.156 222.133 143.156C221.539 143.156 221.005 143.049 220.531 142.836C220.057 142.617 219.651 142.315 219.312 141.93C218.979 141.539 218.724 141.083 218.547 140.562C218.37 140.042 218.281 139.477 218.281 138.867ZM219.727 138.688V138.867C219.727 139.289 219.776 139.688 219.875 140.062C219.974 140.432 220.122 140.76 220.32 141.047C220.523 141.333 220.776 141.56 221.078 141.727C221.38 141.888 221.732 141.969 222.133 141.969C222.529 141.969 222.875 141.888 223.172 141.727C223.474 141.56 223.724 141.333 223.922 141.047C224.12 140.76 224.268 140.432 224.367 140.062C224.471 139.688 224.523 139.289 224.523 138.867V138.688C224.523 138.271 224.471 137.878 224.367 137.508C224.268 137.133 224.117 136.802 223.914 136.516C223.716 136.224 223.466 135.995 223.164 135.828C222.867 135.661 222.518 135.578 222.117 135.578C221.721 135.578 221.372 135.661 221.07 135.828C220.773 135.995 220.523 136.224 220.32 136.516C220.122 136.802 219.974 137.133 219.875 137.508C219.776 137.878 219.727 138.271 219.727 138.688ZM234.203 136.172V146.25H232.75V134.547H234.078L234.203 136.172ZM239.898 138.703V138.867C239.898 139.482 239.826 140.052 239.68 140.578C239.534 141.099 239.32 141.552 239.039 141.938C238.763 142.323 238.422 142.622 238.016 142.836C237.609 143.049 237.143 143.156 236.617 143.156C236.081 143.156 235.607 143.068 235.195 142.891C234.784 142.714 234.435 142.456 234.148 142.117C233.862 141.779 233.633 141.372 233.461 140.898C233.294 140.424 233.18 139.891 233.117 139.297V138.422C233.18 137.797 233.297 137.237 233.469 136.742C233.641 136.247 233.867 135.826 234.148 135.477C234.435 135.122 234.781 134.854 235.188 134.672C235.594 134.484 236.062 134.391 236.594 134.391C237.125 134.391 237.596 134.495 238.008 134.703C238.419 134.906 238.766 135.198 239.047 135.578C239.328 135.958 239.539 136.414 239.68 136.945C239.826 137.471 239.898 138.057 239.898 138.703ZM238.445 138.867V138.703C238.445 138.281 238.401 137.885 238.312 137.516C238.224 137.141 238.086 136.812 237.898 136.531C237.716 136.245 237.482 136.021 237.195 135.859C236.909 135.693 236.568 135.609 236.172 135.609C235.807 135.609 235.49 135.672 235.219 135.797C234.953 135.922 234.727 136.091 234.539 136.305C234.352 136.513 234.198 136.753 234.078 137.023C233.964 137.289 233.878 137.565 233.82 137.852V139.875C233.924 140.24 234.07 140.583 234.258 140.906C234.445 141.224 234.695 141.482 235.008 141.68C235.32 141.872 235.714 141.969 236.188 141.969C236.578 141.969 236.914 141.888 237.195 141.727C237.482 141.56 237.716 141.333 237.898 141.047C238.086 140.76 238.224 140.432 238.312 140.062C238.401 139.688 238.445 139.289 238.445 138.867ZM243.688 135.875V143H242.242V134.547H243.648L243.688 135.875ZM246.328 134.5L246.32 135.844C246.201 135.818 246.086 135.802 245.977 135.797C245.872 135.786 245.753 135.781 245.617 135.781C245.284 135.781 244.99 135.833 244.734 135.938C244.479 136.042 244.263 136.188 244.086 136.375C243.909 136.562 243.768 136.786 243.664 137.047C243.565 137.302 243.5 137.583 243.469 137.891L243.062 138.125C243.062 137.615 243.112 137.135 243.211 136.688C243.315 136.24 243.474 135.844 243.688 135.5C243.901 135.151 244.172 134.88 244.5 134.688C244.833 134.49 245.229 134.391 245.688 134.391C245.792 134.391 245.911 134.404 246.047 134.43C246.182 134.451 246.276 134.474 246.328 134.5ZM247.625 138.867V138.688C247.625 138.078 247.714 137.513 247.891 136.992C248.068 136.466 248.323 136.01 248.656 135.625C248.99 135.234 249.393 134.932 249.867 134.719C250.341 134.5 250.872 134.391 251.461 134.391C252.055 134.391 252.589 134.5 253.062 134.719C253.542 134.932 253.948 135.234 254.281 135.625C254.62 136.01 254.878 136.466 255.055 136.992C255.232 137.513 255.32 138.078 255.32 138.688V138.867C255.32 139.477 255.232 140.042 255.055 140.562C254.878 141.083 254.62 141.539 254.281 141.93C253.948 142.315 253.544 142.617 253.07 142.836C252.602 143.049 252.07 143.156 251.477 143.156C250.883 143.156 250.349 143.049 249.875 142.836C249.401 142.617 248.995 142.315 248.656 141.93C248.323 141.539 248.068 141.083 247.891 140.562C247.714 140.042 247.625 139.477 247.625 138.867ZM249.07 138.688V138.867C249.07 139.289 249.12 139.688 249.219 140.062C249.318 140.432 249.466 140.76 249.664 141.047C249.867 141.333 250.12 141.56 250.422 141.727C250.724 141.888 251.076 141.969 251.477 141.969C251.872 141.969 252.219 141.888 252.516 141.727C252.818 141.56 253.068 141.333 253.266 141.047C253.464 140.76 253.612 140.432 253.711 140.062C253.815 139.688 253.867 139.289 253.867 138.867V138.688C253.867 138.271 253.815 137.878 253.711 137.508C253.612 137.133 253.461 136.802 253.258 136.516C253.06 136.224 252.81 135.995 252.508 135.828C252.211 135.661 251.862 135.578 251.461 135.578C251.065 135.578 250.716 135.661 250.414 135.828C250.117 135.995 249.867 136.224 249.664 136.516C249.466 136.802 249.318 137.133 249.219 137.508C249.12 137.878 249.07 138.271 249.07 138.688ZM257.672 134.547H259.125V144.008C259.125 144.523 259.042 144.961 258.875 145.32C258.714 145.68 258.469 145.951 258.141 146.133C257.818 146.32 257.409 146.414 256.914 146.414C256.784 146.414 256.633 146.401 256.461 146.375C256.284 146.349 256.135 146.318 256.016 146.281L256.023 145.117C256.122 145.138 256.234 145.154 256.359 145.164C256.484 145.18 256.594 145.188 256.688 145.188C256.901 145.188 257.081 145.148 257.227 145.07C257.372 144.992 257.482 144.867 257.555 144.695C257.633 144.523 257.672 144.294 257.672 144.008V134.547ZM257.523 132.305C257.523 132.07 257.596 131.872 257.742 131.711C257.888 131.549 258.099 131.469 258.375 131.469C258.656 131.469 258.87 131.549 259.016 131.711C259.161 131.872 259.234 132.07 259.234 132.305C259.234 132.529 259.161 132.721 259.016 132.883C258.87 133.039 258.656 133.117 258.375 133.117C258.099 133.117 257.888 133.039 257.742 132.883C257.596 132.721 257.523 132.529 257.523 132.305ZM265.469 143.156C264.88 143.156 264.346 143.057 263.867 142.859C263.393 142.656 262.984 142.372 262.641 142.008C262.302 141.643 262.042 141.211 261.859 140.711C261.677 140.211 261.586 139.664 261.586 139.07V138.742C261.586 138.055 261.688 137.443 261.891 136.906C262.094 136.365 262.37 135.906 262.719 135.531C263.068 135.156 263.464 134.872 263.906 134.68C264.349 134.487 264.807 134.391 265.281 134.391C265.885 134.391 266.406 134.495 266.844 134.703C267.286 134.911 267.648 135.203 267.93 135.578C268.211 135.948 268.419 136.385 268.555 136.891C268.69 137.391 268.758 137.938 268.758 138.531V139.18H262.445V138H267.312V137.891C267.292 137.516 267.214 137.151 267.078 136.797C266.948 136.443 266.74 136.151 266.453 135.922C266.167 135.693 265.776 135.578 265.281 135.578C264.953 135.578 264.651 135.648 264.375 135.789C264.099 135.924 263.862 136.128 263.664 136.398C263.466 136.669 263.312 137 263.203 137.391C263.094 137.781 263.039 138.232 263.039 138.742V139.07C263.039 139.471 263.094 139.849 263.203 140.203C263.318 140.552 263.482 140.859 263.695 141.125C263.914 141.391 264.177 141.599 264.484 141.75C264.797 141.901 265.151 141.977 265.547 141.977C266.057 141.977 266.49 141.872 266.844 141.664C267.198 141.456 267.508 141.177 267.773 140.828L268.648 141.523C268.466 141.799 268.234 142.062 267.953 142.312C267.672 142.562 267.326 142.766 266.914 142.922C266.508 143.078 266.026 143.156 265.469 143.156ZM274.484 134.547V135.656H269.914V134.547H274.484ZM271.461 132.492H272.906V140.906C272.906 141.193 272.951 141.409 273.039 141.555C273.128 141.701 273.242 141.797 273.383 141.844C273.523 141.891 273.674 141.914 273.836 141.914C273.956 141.914 274.081 141.904 274.211 141.883C274.346 141.857 274.448 141.836 274.516 141.82L274.523 143C274.409 143.036 274.258 143.07 274.07 143.102C273.888 143.138 273.667 143.156 273.406 143.156C273.052 143.156 272.727 143.086 272.43 142.945C272.133 142.805 271.896 142.57 271.719 142.242C271.547 141.909 271.461 141.461 271.461 140.898V132.492ZM276.141 138.867V138.688C276.141 138.078 276.229 137.513 276.406 136.992C276.583 136.466 276.839 136.01 277.172 135.625C277.505 135.234 277.909 134.932 278.383 134.719C278.857 134.5 279.388 134.391 279.977 134.391C280.57 134.391 281.104 134.5 281.578 134.719C282.057 134.932 282.464 135.234 282.797 135.625C283.135 136.01 283.393 136.466 283.57 136.992C283.747 137.513 283.836 138.078 283.836 138.688V138.867C283.836 139.477 283.747 140.042 283.57 140.562C283.393 141.083 283.135 141.539 282.797 141.93C282.464 142.315 282.06 142.617 281.586 142.836C281.117 143.049 280.586 143.156 279.992 143.156C279.398 143.156 278.865 143.049 278.391 142.836C277.917 142.617 277.51 142.315 277.172 141.93C276.839 141.539 276.583 141.083 276.406 140.562C276.229 140.042 276.141 139.477 276.141 138.867ZM277.586 138.688V138.867C277.586 139.289 277.635 139.688 277.734 140.062C277.833 140.432 277.982 140.76 278.18 141.047C278.383 141.333 278.635 141.56 278.938 141.727C279.24 141.888 279.591 141.969 279.992 141.969C280.388 141.969 280.734 141.888 281.031 141.727C281.333 141.56 281.583 141.333 281.781 141.047C281.979 140.76 282.128 140.432 282.227 140.062C282.331 139.688 282.383 139.289 282.383 138.867V138.688C282.383 138.271 282.331 137.878 282.227 137.508C282.128 137.133 281.977 136.802 281.773 136.516C281.576 136.224 281.326 135.995 281.023 135.828C280.727 135.661 280.378 135.578 279.977 135.578C279.581 135.578 279.232 135.661 278.93 135.828C278.633 135.995 278.383 136.224 278.18 136.516C277.982 136.802 277.833 137.133 277.734 137.508C277.635 137.878 277.586 138.271 277.586 138.688Z" fill="#303133"/>
<path opacity="0.6" d="M67.1641 170.835H68.4766C68.4082 171.464 68.2282 172.027 67.9365 172.523C67.6449 173.02 67.2324 173.414 66.6992 173.706C66.166 173.993 65.5007 174.137 64.7031 174.137C64.1198 174.137 63.5889 174.027 63.1104 173.809C62.6364 173.59 62.2285 173.28 61.8867 172.879C61.5449 172.473 61.2806 171.988 61.0938 171.423C60.9115 170.853 60.8203 170.22 60.8203 169.522V168.531C60.8203 167.834 60.9115 167.203 61.0938 166.638C61.2806 166.068 61.5472 165.58 61.8936 165.175C62.2445 164.769 62.666 164.457 63.1582 164.238C63.6504 164.02 64.2041 163.91 64.8193 163.91C65.5713 163.91 66.207 164.051 66.7266 164.334C67.2461 164.617 67.6494 165.008 67.9365 165.51C68.2282 166.007 68.4082 166.583 68.4766 167.239H67.1641C67.1003 166.774 66.9818 166.376 66.8086 166.043C66.6354 165.706 66.3893 165.446 66.0703 165.264C65.7513 165.081 65.3343 164.99 64.8193 164.99C64.3773 164.99 63.9876 165.075 63.6504 165.243C63.3177 165.412 63.0374 165.651 62.8096 165.961C62.5863 166.271 62.4176 166.642 62.3037 167.075C62.1898 167.508 62.1328 167.989 62.1328 168.518V169.522C62.1328 170.01 62.1829 170.468 62.2832 170.896C62.388 171.325 62.5452 171.701 62.7549 172.024C62.9645 172.348 63.2311 172.603 63.5547 172.79C63.8783 172.972 64.2611 173.063 64.7031 173.063C65.2637 173.063 65.7103 172.975 66.043 172.797C66.3757 172.619 66.6263 172.364 66.7949 172.031C66.9681 171.699 67.0911 171.3 67.1641 170.835ZM69.998 170.384V170.227C69.998 169.693 70.0755 169.199 70.2305 168.743C70.3854 168.283 70.6087 167.884 70.9004 167.547C71.1921 167.205 71.5452 166.941 71.96 166.754C72.3747 166.562 72.8395 166.467 73.3545 166.467C73.874 166.467 74.3411 166.562 74.7559 166.754C75.1751 166.941 75.5306 167.205 75.8223 167.547C76.1185 167.884 76.3441 168.283 76.499 168.743C76.654 169.199 76.7314 169.693 76.7314 170.227V170.384C76.7314 170.917 76.654 171.411 76.499 171.867C76.3441 172.323 76.1185 172.722 75.8223 173.063C75.5306 173.401 75.1774 173.665 74.7627 173.856C74.3525 174.043 73.8877 174.137 73.3682 174.137C72.8486 174.137 72.3815 174.043 71.9668 173.856C71.5521 173.665 71.1966 173.401 70.9004 173.063C70.6087 172.722 70.3854 172.323 70.2305 171.867C70.0755 171.411 69.998 170.917 69.998 170.384ZM71.2627 170.227V170.384C71.2627 170.753 71.306 171.102 71.3926 171.43C71.4792 171.753 71.609 172.04 71.7822 172.291C71.96 172.542 72.181 172.74 72.4453 172.886C72.7096 173.027 73.0173 173.098 73.3682 173.098C73.7145 173.098 74.0176 173.027 74.2773 172.886C74.5417 172.74 74.7604 172.542 74.9336 172.291C75.1068 172.04 75.2367 171.753 75.3232 171.43C75.4144 171.102 75.46 170.753 75.46 170.384V170.227C75.46 169.862 75.4144 169.518 75.3232 169.194C75.2367 168.866 75.1045 168.577 74.9268 168.326C74.7536 168.071 74.5348 167.87 74.2705 167.725C74.0107 167.579 73.7054 167.506 73.3545 167.506C73.0081 167.506 72.7028 167.579 72.4385 167.725C72.1787 167.87 71.96 168.071 71.7822 168.326C71.609 168.577 71.4792 168.866 71.3926 169.194C71.306 169.518 71.2627 169.862 71.2627 170.227ZM79.8252 168.073V174H78.5537V166.604H79.7568L79.8252 168.073ZM79.5654 170.021L78.9775 170.001C78.9821 169.495 79.0482 169.028 79.1758 168.6C79.3034 168.167 79.4925 167.791 79.7432 167.472C79.9938 167.153 80.306 166.907 80.6797 166.733C81.0534 166.556 81.4863 166.467 81.9785 166.467C82.3249 166.467 82.6439 166.517 82.9355 166.617C83.2272 166.713 83.4801 166.866 83.6943 167.075C83.9085 167.285 84.0749 167.554 84.1934 167.882C84.3118 168.21 84.3711 168.606 84.3711 169.071V174H83.1064V169.133C83.1064 168.745 83.0404 168.436 82.9082 168.203C82.7806 167.971 82.5983 167.802 82.3613 167.697C82.1243 167.588 81.8464 167.533 81.5273 167.533C81.1536 167.533 80.8415 167.599 80.5908 167.731C80.3402 167.864 80.1396 168.046 79.9893 168.278C79.8389 168.511 79.7295 168.777 79.6611 169.078C79.5973 169.374 79.5654 169.689 79.5654 170.021ZM84.3574 169.324L83.5098 169.584C83.5143 169.178 83.5804 168.789 83.708 168.415C83.8402 168.041 84.0293 167.709 84.2754 167.417C84.526 167.125 84.8337 166.895 85.1982 166.727C85.5628 166.553 85.9798 166.467 86.4492 166.467C86.8457 166.467 87.1966 166.519 87.502 166.624C87.8118 166.729 88.0716 166.891 88.2812 167.109C88.4954 167.324 88.6572 167.599 88.7666 167.937C88.876 168.274 88.9307 168.675 88.9307 169.14V174H87.6592V169.126C87.6592 168.711 87.5931 168.39 87.4609 168.162C87.3333 167.93 87.151 167.768 86.9141 167.677C86.6816 167.581 86.4036 167.533 86.0801 167.533C85.8021 167.533 85.556 167.581 85.3418 167.677C85.1276 167.772 84.9476 167.905 84.8018 168.073C84.6559 168.237 84.5443 168.426 84.4668 168.641C84.3939 168.855 84.3574 169.083 84.3574 169.324ZM92.3594 168.025V176.844H91.0879V166.604H92.25L92.3594 168.025ZM97.3428 170.24V170.384C97.3428 170.922 97.279 171.421 97.1514 171.881C97.0238 172.337 96.8369 172.733 96.5908 173.07C96.3493 173.408 96.0508 173.67 95.6953 173.856C95.3398 174.043 94.932 174.137 94.4717 174.137C94.0023 174.137 93.5876 174.059 93.2275 173.904C92.8675 173.749 92.5622 173.524 92.3115 173.228C92.0609 172.931 91.8604 172.576 91.71 172.161C91.5641 171.746 91.4639 171.279 91.4092 170.76V169.994C91.4639 169.447 91.5664 168.957 91.7168 168.524C91.8672 168.091 92.0654 167.722 92.3115 167.417C92.5622 167.107 92.8652 166.872 93.2207 166.713C93.5762 166.549 93.9863 166.467 94.4512 166.467C94.916 166.467 95.3285 166.558 95.6885 166.74C96.0485 166.918 96.3516 167.173 96.5977 167.506C96.8438 167.839 97.0283 168.237 97.1514 168.702C97.279 169.162 97.3428 169.675 97.3428 170.24ZM96.0713 170.384V170.24C96.0713 169.871 96.0326 169.525 95.9551 169.201C95.8776 168.873 95.7568 168.586 95.5928 168.34C95.4333 168.089 95.2282 167.893 94.9775 167.752C94.7269 167.606 94.4284 167.533 94.082 167.533C93.763 167.533 93.485 167.588 93.248 167.697C93.0156 167.807 92.8174 167.955 92.6533 168.142C92.4893 168.324 92.3548 168.534 92.25 168.771C92.1497 169.003 92.0745 169.244 92.0244 169.495V171.266C92.1156 171.585 92.2432 171.885 92.4072 172.168C92.5713 172.446 92.79 172.672 93.0635 172.845C93.3369 173.013 93.681 173.098 94.0957 173.098C94.4375 173.098 94.7314 173.027 94.9775 172.886C95.2282 172.74 95.4333 172.542 95.5928 172.291C95.7568 172.04 95.8776 171.753 95.9551 171.43C96.0326 171.102 96.0713 170.753 96.0713 170.384ZM103.567 172.735V168.928C103.567 168.636 103.508 168.383 103.39 168.169C103.276 167.95 103.103 167.782 102.87 167.663C102.638 167.545 102.351 167.485 102.009 167.485C101.69 167.485 101.41 167.54 101.168 167.649C100.931 167.759 100.744 167.902 100.607 168.08C100.475 168.258 100.409 168.449 100.409 168.654H99.1445C99.1445 168.39 99.2129 168.128 99.3496 167.868C99.4863 167.608 99.6823 167.374 99.9375 167.164C100.197 166.95 100.507 166.781 100.867 166.658C101.232 166.531 101.637 166.467 102.084 166.467C102.622 166.467 103.096 166.558 103.506 166.74C103.921 166.923 104.244 167.198 104.477 167.567C104.714 167.932 104.832 168.39 104.832 168.941V172.387C104.832 172.633 104.853 172.895 104.894 173.173C104.939 173.451 105.005 173.69 105.092 173.891V174H103.772C103.709 173.854 103.659 173.66 103.622 173.419C103.586 173.173 103.567 172.945 103.567 172.735ZM103.786 169.516L103.8 170.404H102.521C102.161 170.404 101.84 170.434 101.558 170.493C101.275 170.548 101.038 170.632 100.847 170.746C100.655 170.86 100.509 171.004 100.409 171.177C100.309 171.345 100.259 171.544 100.259 171.771C100.259 172.004 100.311 172.216 100.416 172.407C100.521 172.599 100.678 172.751 100.888 172.865C101.102 172.975 101.364 173.029 101.674 173.029C102.061 173.029 102.403 172.947 102.699 172.783C102.995 172.619 103.23 172.419 103.403 172.182C103.581 171.945 103.677 171.715 103.69 171.491L104.23 172.1C104.199 172.291 104.112 172.503 103.971 172.735C103.829 172.968 103.64 173.191 103.403 173.405C103.171 173.615 102.893 173.79 102.569 173.932C102.25 174.068 101.89 174.137 101.489 174.137C100.988 174.137 100.548 174.039 100.17 173.843C99.7962 173.647 99.5046 173.385 99.2949 173.057C99.0898 172.724 98.9873 172.353 98.9873 171.942C98.9873 171.546 99.0648 171.197 99.2197 170.896C99.3747 170.591 99.598 170.338 99.8896 170.138C100.181 169.933 100.532 169.778 100.942 169.673C101.353 169.568 101.811 169.516 102.316 169.516H103.786ZM108.336 167.766V174H107.071V166.604H108.302L108.336 167.766ZM110.646 166.562L110.64 167.738C110.535 167.715 110.435 167.702 110.339 167.697C110.248 167.688 110.143 167.684 110.024 167.684C109.733 167.684 109.475 167.729 109.252 167.82C109.029 167.911 108.84 168.039 108.685 168.203C108.53 168.367 108.407 168.563 108.315 168.791C108.229 169.014 108.172 169.26 108.145 169.529L107.789 169.734C107.789 169.288 107.832 168.868 107.919 168.477C108.01 168.085 108.149 167.738 108.336 167.438C108.523 167.132 108.76 166.895 109.047 166.727C109.339 166.553 109.685 166.467 110.086 166.467C110.177 166.467 110.282 166.478 110.4 166.501C110.519 166.519 110.601 166.54 110.646 166.562ZM115.504 166.604V167.574H111.505V166.604H115.504ZM112.858 164.806H114.123V172.168C114.123 172.419 114.162 172.608 114.239 172.735C114.317 172.863 114.417 172.947 114.54 172.988C114.663 173.029 114.795 173.05 114.937 173.05C115.041 173.05 115.151 173.041 115.265 173.022C115.383 173 115.472 172.981 115.531 172.968L115.538 174C115.438 174.032 115.306 174.062 115.142 174.089C114.982 174.121 114.788 174.137 114.561 174.137C114.251 174.137 113.966 174.075 113.706 173.952C113.446 173.829 113.239 173.624 113.084 173.337C112.934 173.045 112.858 172.653 112.858 172.161V164.806ZM118.611 166.604V174H117.34V166.604H118.611ZM117.244 164.642C117.244 164.437 117.306 164.263 117.429 164.122C117.556 163.981 117.743 163.91 117.989 163.91C118.231 163.91 118.415 163.981 118.543 164.122C118.675 164.263 118.741 164.437 118.741 164.642C118.741 164.838 118.675 165.006 118.543 165.147C118.415 165.284 118.231 165.353 117.989 165.353C117.743 165.353 117.556 165.284 117.429 165.147C117.306 165.006 117.244 164.838 117.244 164.642ZM122.266 163.5V174H120.994V163.5H122.266ZM125.811 163.5V174H124.546V163.5H125.811ZM125.51 170.021L124.983 170.001C124.988 169.495 125.063 169.028 125.209 168.6C125.355 168.167 125.56 167.791 125.824 167.472C126.089 167.153 126.403 166.907 126.768 166.733C127.137 166.556 127.545 166.467 127.991 166.467C128.356 166.467 128.684 166.517 128.976 166.617C129.267 166.713 129.516 166.868 129.721 167.082C129.93 167.296 130.09 167.574 130.199 167.916C130.309 168.253 130.363 168.666 130.363 169.153V174H129.092V169.14C129.092 168.752 129.035 168.442 128.921 168.21C128.807 167.973 128.641 167.802 128.422 167.697C128.203 167.588 127.934 167.533 127.615 167.533C127.301 167.533 127.014 167.599 126.754 167.731C126.499 167.864 126.278 168.046 126.091 168.278C125.909 168.511 125.765 168.777 125.66 169.078C125.56 169.374 125.51 169.689 125.51 170.021ZM135.576 174.137C135.061 174.137 134.594 174.05 134.175 173.877C133.76 173.699 133.402 173.451 133.102 173.132C132.805 172.813 132.577 172.435 132.418 171.997C132.258 171.56 132.179 171.081 132.179 170.562V170.274C132.179 169.673 132.268 169.137 132.445 168.668C132.623 168.194 132.865 167.793 133.17 167.465C133.475 167.137 133.822 166.888 134.209 166.72C134.596 166.551 134.997 166.467 135.412 166.467C135.941 166.467 136.396 166.558 136.779 166.74C137.167 166.923 137.483 167.178 137.729 167.506C137.976 167.829 138.158 168.212 138.276 168.654C138.395 169.092 138.454 169.57 138.454 170.09V170.657H132.931V169.625H137.189V169.529C137.171 169.201 137.103 168.882 136.984 168.572C136.87 168.262 136.688 168.007 136.438 167.807C136.187 167.606 135.845 167.506 135.412 167.506C135.125 167.506 134.861 167.567 134.619 167.69C134.378 167.809 134.17 167.987 133.997 168.224C133.824 168.461 133.689 168.75 133.594 169.092C133.498 169.434 133.45 169.828 133.45 170.274V170.562C133.45 170.912 133.498 171.243 133.594 171.553C133.694 171.858 133.838 172.127 134.024 172.359C134.216 172.592 134.446 172.774 134.715 172.906C134.988 173.038 135.298 173.104 135.645 173.104C136.091 173.104 136.469 173.013 136.779 172.831C137.089 172.649 137.36 172.405 137.593 172.1L138.358 172.708C138.199 172.95 137.996 173.18 137.75 173.398C137.504 173.617 137.201 173.795 136.841 173.932C136.485 174.068 136.064 174.137 135.576 174.137ZM148.21 172.038C148.21 171.856 148.169 171.687 148.087 171.532C148.009 171.373 147.848 171.229 147.602 171.102C147.36 170.969 146.995 170.855 146.508 170.76C146.098 170.673 145.726 170.571 145.394 170.452C145.065 170.334 144.785 170.19 144.553 170.021C144.325 169.853 144.149 169.655 144.026 169.427C143.903 169.199 143.842 168.932 143.842 168.627C143.842 168.335 143.906 168.06 144.033 167.8C144.165 167.54 144.35 167.31 144.587 167.109C144.828 166.909 145.118 166.752 145.455 166.638C145.792 166.524 146.168 166.467 146.583 166.467C147.175 166.467 147.681 166.572 148.101 166.781C148.52 166.991 148.841 167.271 149.064 167.622C149.288 167.968 149.399 168.354 149.399 168.777H148.135C148.135 168.572 148.073 168.374 147.95 168.183C147.832 167.987 147.656 167.825 147.424 167.697C147.196 167.57 146.916 167.506 146.583 167.506C146.232 167.506 145.947 167.561 145.729 167.67C145.514 167.775 145.357 167.909 145.257 168.073C145.161 168.237 145.113 168.41 145.113 168.593C145.113 168.729 145.136 168.853 145.182 168.962C145.232 169.067 145.318 169.165 145.441 169.256C145.564 169.342 145.738 169.424 145.961 169.502C146.184 169.579 146.469 169.657 146.815 169.734C147.422 169.871 147.921 170.035 148.312 170.227C148.704 170.418 148.996 170.653 149.188 170.931C149.379 171.209 149.475 171.546 149.475 171.942C149.475 172.266 149.406 172.562 149.27 172.831C149.137 173.1 148.944 173.332 148.688 173.528C148.438 173.72 148.137 173.87 147.786 173.979C147.44 174.084 147.05 174.137 146.617 174.137C145.965 174.137 145.414 174.021 144.963 173.788C144.512 173.556 144.17 173.255 143.938 172.886C143.705 172.517 143.589 172.127 143.589 171.717H144.86C144.879 172.063 144.979 172.339 145.161 172.544C145.343 172.744 145.567 172.888 145.831 172.975C146.095 173.057 146.357 173.098 146.617 173.098C146.964 173.098 147.253 173.052 147.485 172.961C147.722 172.87 147.902 172.744 148.025 172.585C148.148 172.425 148.21 172.243 148.21 172.038ZM154.455 174.137C153.94 174.137 153.473 174.05 153.054 173.877C152.639 173.699 152.281 173.451 151.98 173.132C151.684 172.813 151.456 172.435 151.297 171.997C151.137 171.56 151.058 171.081 151.058 170.562V170.274C151.058 169.673 151.146 169.137 151.324 168.668C151.502 168.194 151.743 167.793 152.049 167.465C152.354 167.137 152.701 166.888 153.088 166.72C153.475 166.551 153.876 166.467 154.291 166.467C154.82 166.467 155.275 166.558 155.658 166.74C156.046 166.923 156.362 167.178 156.608 167.506C156.854 167.829 157.037 168.212 157.155 168.654C157.274 169.092 157.333 169.57 157.333 170.09V170.657H151.81V169.625H156.068V169.529C156.05 169.201 155.982 168.882 155.863 168.572C155.749 168.262 155.567 168.007 155.316 167.807C155.066 167.606 154.724 167.506 154.291 167.506C154.004 167.506 153.74 167.567 153.498 167.69C153.257 167.809 153.049 167.987 152.876 168.224C152.703 168.461 152.568 168.75 152.473 169.092C152.377 169.434 152.329 169.828 152.329 170.274V170.562C152.329 170.912 152.377 171.243 152.473 171.553C152.573 171.858 152.716 172.127 152.903 172.359C153.095 172.592 153.325 172.774 153.594 172.906C153.867 173.038 154.177 173.104 154.523 173.104C154.97 173.104 155.348 173.013 155.658 172.831C155.968 172.649 156.239 172.405 156.472 172.1L157.237 172.708C157.078 172.95 156.875 173.18 156.629 173.398C156.383 173.617 156.08 173.795 155.72 173.932C155.364 174.068 154.943 174.137 154.455 174.137ZM163.585 172.291V166.604H164.856V174H163.646L163.585 172.291ZM163.824 170.732L164.351 170.719C164.351 171.211 164.298 171.667 164.193 172.086C164.093 172.501 163.929 172.861 163.701 173.166C163.473 173.471 163.175 173.711 162.806 173.884C162.437 174.052 161.988 174.137 161.459 174.137C161.099 174.137 160.769 174.084 160.468 173.979C160.172 173.875 159.916 173.713 159.702 173.494C159.488 173.275 159.322 172.991 159.203 172.64C159.089 172.289 159.032 171.867 159.032 171.375V166.604H160.297V171.389C160.297 171.721 160.333 171.997 160.406 172.216C160.484 172.43 160.586 172.601 160.714 172.729C160.846 172.852 160.992 172.938 161.151 172.988C161.315 173.038 161.484 173.063 161.657 173.063C162.195 173.063 162.621 172.961 162.936 172.756C163.25 172.546 163.476 172.266 163.612 171.915C163.754 171.56 163.824 171.165 163.824 170.732ZM173.854 166.604V167.574H169.854V166.604H173.854ZM171.208 164.806H172.473V172.168C172.473 172.419 172.511 172.608 172.589 172.735C172.666 172.863 172.767 172.947 172.89 172.988C173.013 173.029 173.145 173.05 173.286 173.05C173.391 173.05 173.5 173.041 173.614 173.022C173.733 173 173.822 172.981 173.881 172.968L173.888 174C173.787 174.032 173.655 174.062 173.491 174.089C173.332 174.121 173.138 174.137 172.91 174.137C172.6 174.137 172.315 174.075 172.056 173.952C171.796 173.829 171.589 173.624 171.434 173.337C171.283 173.045 171.208 172.653 171.208 172.161V164.806ZM179.948 172.735V168.928C179.948 168.636 179.889 168.383 179.771 168.169C179.657 167.95 179.483 167.782 179.251 167.663C179.019 167.545 178.731 167.485 178.39 167.485C178.071 167.485 177.79 167.54 177.549 167.649C177.312 167.759 177.125 167.902 176.988 168.08C176.856 168.258 176.79 168.449 176.79 168.654H175.525C175.525 168.39 175.594 168.128 175.73 167.868C175.867 167.608 176.063 167.374 176.318 167.164C176.578 166.95 176.888 166.781 177.248 166.658C177.613 166.531 178.018 166.467 178.465 166.467C179.003 166.467 179.477 166.558 179.887 166.74C180.301 166.923 180.625 167.198 180.857 167.567C181.094 167.932 181.213 168.39 181.213 168.941V172.387C181.213 172.633 181.233 172.895 181.274 173.173C181.32 173.451 181.386 173.69 181.473 173.891V174H180.153C180.09 173.854 180.039 173.66 180.003 173.419C179.966 173.173 179.948 172.945 179.948 172.735ZM180.167 169.516L180.181 170.404H178.902C178.542 170.404 178.221 170.434 177.938 170.493C177.656 170.548 177.419 170.632 177.228 170.746C177.036 170.86 176.89 171.004 176.79 171.177C176.69 171.345 176.64 171.544 176.64 171.771C176.64 172.004 176.692 172.216 176.797 172.407C176.902 172.599 177.059 172.751 177.269 172.865C177.483 172.975 177.745 173.029 178.055 173.029C178.442 173.029 178.784 172.947 179.08 172.783C179.376 172.619 179.611 172.419 179.784 172.182C179.962 171.945 180.058 171.715 180.071 171.491L180.611 172.1C180.579 172.291 180.493 172.503 180.352 172.735C180.21 172.968 180.021 173.191 179.784 173.405C179.552 173.615 179.274 173.79 178.95 173.932C178.631 174.068 178.271 174.137 177.87 174.137C177.369 174.137 176.929 174.039 176.551 173.843C176.177 173.647 175.885 173.385 175.676 173.057C175.471 172.724 175.368 172.353 175.368 171.942C175.368 171.546 175.446 171.197 175.601 170.896C175.756 170.591 175.979 170.338 176.271 170.138C176.562 169.933 176.913 169.778 177.323 169.673C177.733 169.568 178.191 169.516 178.697 169.516H180.167ZM184.826 163.5V174H183.555V163.5H184.826ZM190.176 174.137C189.661 174.137 189.194 174.05 188.774 173.877C188.36 173.699 188.002 173.451 187.701 173.132C187.405 172.813 187.177 172.435 187.018 171.997C186.858 171.56 186.778 171.081 186.778 170.562V170.274C186.778 169.673 186.867 169.137 187.045 168.668C187.223 168.194 187.464 167.793 187.77 167.465C188.075 167.137 188.421 166.888 188.809 166.72C189.196 166.551 189.597 166.467 190.012 166.467C190.54 166.467 190.996 166.558 191.379 166.74C191.766 166.923 192.083 167.178 192.329 167.506C192.575 167.829 192.757 168.212 192.876 168.654C192.994 169.092 193.054 169.57 193.054 170.09V170.657H187.53V169.625H191.789V169.529C191.771 169.201 191.702 168.882 191.584 168.572C191.47 168.262 191.288 168.007 191.037 167.807C190.786 167.606 190.445 167.506 190.012 167.506C189.725 167.506 189.46 167.567 189.219 167.69C188.977 167.809 188.77 167.987 188.597 168.224C188.424 168.461 188.289 168.75 188.193 169.092C188.098 169.434 188.05 169.828 188.05 170.274V170.562C188.05 170.912 188.098 171.243 188.193 171.553C188.294 171.858 188.437 172.127 188.624 172.359C188.815 172.592 189.046 172.774 189.314 172.906C189.588 173.038 189.898 173.104 190.244 173.104C190.691 173.104 191.069 173.013 191.379 172.831C191.689 172.649 191.96 172.405 192.192 172.1L192.958 172.708C192.799 172.95 192.596 173.18 192.35 173.398C192.104 173.617 191.8 173.795 191.44 173.932C191.085 174.068 190.663 174.137 190.176 174.137ZM196.045 168.183V174H194.78V166.604H195.977L196.045 168.183ZM195.744 170.021L195.218 170.001C195.222 169.495 195.298 169.028 195.443 168.6C195.589 168.167 195.794 167.791 196.059 167.472C196.323 167.153 196.637 166.907 197.002 166.733C197.371 166.556 197.779 166.467 198.226 166.467C198.59 166.467 198.918 166.517 199.21 166.617C199.502 166.713 199.75 166.868 199.955 167.082C200.165 167.296 200.324 167.574 200.434 167.916C200.543 168.253 200.598 168.666 200.598 169.153V174H199.326V169.14C199.326 168.752 199.269 168.442 199.155 168.21C199.041 167.973 198.875 167.802 198.656 167.697C198.438 167.588 198.169 167.533 197.85 167.533C197.535 167.533 197.248 167.599 196.988 167.731C196.733 167.864 196.512 168.046 196.325 168.278C196.143 168.511 195.999 168.777 195.895 169.078C195.794 169.374 195.744 169.689 195.744 170.021ZM205.865 166.604V167.574H201.866V166.604H205.865ZM203.22 164.806H204.484V172.168C204.484 172.419 204.523 172.608 204.601 172.735C204.678 172.863 204.778 172.947 204.901 172.988C205.024 173.029 205.157 173.05 205.298 173.05C205.403 173.05 205.512 173.041 205.626 173.022C205.744 173 205.833 172.981 205.893 172.968L205.899 174C205.799 174.032 205.667 174.062 205.503 174.089C205.343 174.121 205.15 174.137 204.922 174.137C204.612 174.137 204.327 174.075 204.067 173.952C203.808 173.829 203.6 173.624 203.445 173.337C203.295 173.045 203.22 172.653 203.22 172.161V164.806ZM207.127 170.384V170.227C207.127 169.693 207.204 169.199 207.359 168.743C207.514 168.283 207.738 167.884 208.029 167.547C208.321 167.205 208.674 166.941 209.089 166.754C209.504 166.562 209.968 166.467 210.483 166.467C211.003 166.467 211.47 166.562 211.885 166.754C212.304 166.941 212.66 167.205 212.951 167.547C213.247 167.884 213.473 168.283 213.628 168.743C213.783 169.199 213.86 169.693 213.86 170.227V170.384C213.86 170.917 213.783 171.411 213.628 171.867C213.473 172.323 213.247 172.722 212.951 173.063C212.66 173.401 212.306 173.665 211.892 173.856C211.481 174.043 211.017 174.137 210.497 174.137C209.978 174.137 209.51 174.043 209.096 173.856C208.681 173.665 208.326 173.401 208.029 173.063C207.738 172.722 207.514 172.323 207.359 171.867C207.204 171.411 207.127 170.917 207.127 170.384ZM208.392 170.227V170.384C208.392 170.753 208.435 171.102 208.521 171.43C208.608 171.753 208.738 172.04 208.911 172.291C209.089 172.542 209.31 172.74 209.574 172.886C209.839 173.027 210.146 173.098 210.497 173.098C210.843 173.098 211.146 173.027 211.406 172.886C211.671 172.74 211.889 172.542 212.062 172.291C212.236 172.04 212.366 171.753 212.452 171.43C212.543 171.102 212.589 170.753 212.589 170.384V170.227C212.589 169.862 212.543 169.518 212.452 169.194C212.366 168.866 212.233 168.577 212.056 168.326C211.882 168.071 211.664 167.87 211.399 167.725C211.14 167.579 210.834 167.506 210.483 167.506C210.137 167.506 209.832 167.579 209.567 167.725C209.308 167.87 209.089 168.071 208.911 168.326C208.738 168.577 208.608 168.866 208.521 169.194C208.435 169.518 208.392 169.862 208.392 170.227ZM222.379 173.098C222.68 173.098 222.958 173.036 223.213 172.913C223.468 172.79 223.678 172.621 223.842 172.407C224.006 172.188 224.099 171.94 224.122 171.662H225.325C225.302 172.1 225.154 172.507 224.881 172.886C224.612 173.259 224.259 173.562 223.821 173.795C223.384 174.023 222.903 174.137 222.379 174.137C221.823 174.137 221.338 174.039 220.923 173.843C220.513 173.647 220.171 173.378 219.897 173.036C219.629 172.694 219.426 172.302 219.289 171.86C219.157 171.414 219.091 170.942 219.091 170.445V170.158C219.091 169.661 219.157 169.192 219.289 168.75C219.426 168.303 219.629 167.909 219.897 167.567C220.171 167.226 220.513 166.957 220.923 166.761C221.338 166.565 221.823 166.467 222.379 166.467C222.958 166.467 223.464 166.585 223.896 166.822C224.329 167.055 224.669 167.374 224.915 167.779C225.166 168.18 225.302 168.636 225.325 169.146H224.122C224.099 168.841 224.013 168.565 223.862 168.319C223.716 168.073 223.516 167.877 223.261 167.731C223.01 167.581 222.716 167.506 222.379 167.506C221.992 167.506 221.666 167.583 221.401 167.738C221.142 167.889 220.934 168.094 220.779 168.354C220.629 168.609 220.52 168.894 220.451 169.208C220.387 169.518 220.355 169.835 220.355 170.158V170.445C220.355 170.769 220.387 171.088 220.451 171.402C220.515 171.717 220.622 172.002 220.772 172.257C220.927 172.512 221.135 172.717 221.395 172.872C221.659 173.022 221.987 173.098 222.379 173.098ZM226.662 170.384V170.227C226.662 169.693 226.74 169.199 226.895 168.743C227.049 168.283 227.273 167.884 227.564 167.547C227.856 167.205 228.209 166.941 228.624 166.754C229.039 166.562 229.504 166.467 230.019 166.467C230.538 166.467 231.005 166.562 231.42 166.754C231.839 166.941 232.195 167.205 232.486 167.547C232.783 167.884 233.008 168.283 233.163 168.743C233.318 169.199 233.396 169.693 233.396 170.227V170.384C233.396 170.917 233.318 171.411 233.163 171.867C233.008 172.323 232.783 172.722 232.486 173.063C232.195 173.401 231.841 173.665 231.427 173.856C231.017 174.043 230.552 174.137 230.032 174.137C229.513 174.137 229.046 174.043 228.631 173.856C228.216 173.665 227.861 173.401 227.564 173.063C227.273 172.722 227.049 172.323 226.895 171.867C226.74 171.411 226.662 170.917 226.662 170.384ZM227.927 170.227V170.384C227.927 170.753 227.97 171.102 228.057 171.43C228.143 171.753 228.273 172.04 228.446 172.291C228.624 172.542 228.845 172.74 229.109 172.886C229.374 173.027 229.681 173.098 230.032 173.098C230.379 173.098 230.682 173.027 230.941 172.886C231.206 172.74 231.424 172.542 231.598 172.291C231.771 172.04 231.901 171.753 231.987 171.43C232.078 171.102 232.124 170.753 232.124 170.384V170.227C232.124 169.862 232.078 169.518 231.987 169.194C231.901 168.866 231.769 168.577 231.591 168.326C231.418 168.071 231.199 167.87 230.935 167.725C230.675 167.579 230.369 167.506 230.019 167.506C229.672 167.506 229.367 167.579 229.103 167.725C228.843 167.87 228.624 168.071 228.446 168.326C228.273 168.577 228.143 168.866 228.057 169.194C227.97 169.518 227.927 169.862 227.927 170.227ZM236.489 168.073V174H235.218V166.604H236.421L236.489 168.073ZM236.229 170.021L235.642 170.001C235.646 169.495 235.712 169.028 235.84 168.6C235.967 168.167 236.157 167.791 236.407 167.472C236.658 167.153 236.97 166.907 237.344 166.733C237.717 166.556 238.15 166.467 238.643 166.467C238.989 166.467 239.308 166.517 239.6 166.617C239.891 166.713 240.144 166.866 240.358 167.075C240.573 167.285 240.739 167.554 240.857 167.882C240.976 168.21 241.035 168.606 241.035 169.071V174H239.771V169.133C239.771 168.745 239.704 168.436 239.572 168.203C239.445 167.971 239.262 167.802 239.025 167.697C238.788 167.588 238.51 167.533 238.191 167.533C237.818 167.533 237.506 167.599 237.255 167.731C237.004 167.864 236.804 168.046 236.653 168.278C236.503 168.511 236.394 168.777 236.325 169.078C236.261 169.374 236.229 169.689 236.229 170.021ZM241.021 169.324L240.174 169.584C240.178 169.178 240.244 168.789 240.372 168.415C240.504 168.041 240.693 167.709 240.939 167.417C241.19 167.125 241.498 166.895 241.862 166.727C242.227 166.553 242.644 166.467 243.113 166.467C243.51 166.467 243.861 166.519 244.166 166.624C244.476 166.729 244.736 166.891 244.945 167.109C245.16 167.324 245.321 167.599 245.431 167.937C245.54 168.274 245.595 168.675 245.595 169.14V174H244.323V169.126C244.323 168.711 244.257 168.39 244.125 168.162C243.997 167.93 243.815 167.768 243.578 167.677C243.346 167.581 243.068 167.533 242.744 167.533C242.466 167.533 242.22 167.581 242.006 167.677C241.792 167.772 241.612 167.905 241.466 168.073C241.32 168.237 241.208 168.426 241.131 168.641C241.058 168.855 241.021 169.083 241.021 169.324ZM252.739 168.073V174H251.468V166.604H252.671L252.739 168.073ZM252.479 170.021L251.892 170.001C251.896 169.495 251.962 169.028 252.09 168.6C252.217 168.167 252.407 167.791 252.657 167.472C252.908 167.153 253.22 166.907 253.594 166.733C253.967 166.556 254.4 166.467 254.893 166.467C255.239 166.467 255.558 166.517 255.85 166.617C256.141 166.713 256.394 166.866 256.608 167.075C256.823 167.285 256.989 167.554 257.107 167.882C257.226 168.21 257.285 168.606 257.285 169.071V174H256.021V169.133C256.021 168.745 255.954 168.436 255.822 168.203C255.695 167.971 255.512 167.802 255.275 167.697C255.038 167.588 254.76 167.533 254.441 167.533C254.068 167.533 253.756 167.599 253.505 167.731C253.254 167.864 253.054 168.046 252.903 168.278C252.753 168.511 252.644 168.777 252.575 169.078C252.511 169.374 252.479 169.689 252.479 170.021ZM257.271 169.324L256.424 169.584C256.428 169.178 256.494 168.789 256.622 168.415C256.754 168.041 256.943 167.709 257.189 167.417C257.44 167.125 257.748 166.895 258.112 166.727C258.477 166.553 258.894 166.467 259.363 166.467C259.76 166.467 260.111 166.519 260.416 166.624C260.726 166.729 260.986 166.891 261.195 167.109C261.41 167.324 261.571 167.599 261.681 167.937C261.79 168.274 261.845 168.675 261.845 169.14V174H260.573V169.126C260.573 168.711 260.507 168.39 260.375 168.162C260.247 167.93 260.065 167.768 259.828 167.677C259.596 167.581 259.318 167.533 258.994 167.533C258.716 167.533 258.47 167.581 258.256 167.677C258.042 167.772 257.862 167.905 257.716 168.073C257.57 168.237 257.458 168.426 257.381 168.641C257.308 168.855 257.271 169.083 257.271 169.324ZM265.383 166.604V174H264.111V166.604H265.383ZM264.016 164.642C264.016 164.437 264.077 164.263 264.2 164.122C264.328 163.981 264.515 163.91 264.761 163.91C265.002 163.91 265.187 163.981 265.314 164.122C265.447 164.263 265.513 164.437 265.513 164.642C265.513 164.838 265.447 165.006 265.314 165.147C265.187 165.284 265.002 165.353 264.761 165.353C264.515 165.353 264.328 165.284 264.2 165.147C264.077 165.006 264.016 164.838 264.016 164.642ZM269.037 163.5V174H267.766V163.5H269.037ZM272.582 163.5V174H271.317V163.5H272.582ZM272.281 170.021L271.755 170.001C271.759 169.495 271.835 169.028 271.98 168.6C272.126 168.167 272.331 167.791 272.596 167.472C272.86 167.153 273.174 166.907 273.539 166.733C273.908 166.556 274.316 166.467 274.763 166.467C275.127 166.467 275.455 166.517 275.747 166.617C276.039 166.713 276.287 166.868 276.492 167.082C276.702 167.296 276.861 167.574 276.971 167.916C277.08 168.253 277.135 168.666 277.135 169.153V174H275.863V169.14C275.863 168.752 275.806 168.442 275.692 168.21C275.578 167.973 275.412 167.802 275.193 167.697C274.975 167.588 274.706 167.533 274.387 167.533C274.072 167.533 273.785 167.599 273.525 167.731C273.27 167.864 273.049 168.046 272.862 168.278C272.68 168.511 272.536 168.777 272.432 169.078C272.331 169.374 272.281 169.689 272.281 170.021ZM283.64 172.735V168.928C283.64 168.636 283.58 168.383 283.462 168.169C283.348 167.95 283.175 167.782 282.942 167.663C282.71 167.545 282.423 167.485 282.081 167.485C281.762 167.485 281.482 167.54 281.24 167.649C281.003 167.759 280.816 167.902 280.68 168.08C280.548 168.258 280.481 168.449 280.481 168.654H279.217C279.217 168.39 279.285 168.128 279.422 167.868C279.559 167.608 279.755 167.374 280.01 167.164C280.27 166.95 280.579 166.781 280.939 166.658C281.304 166.531 281.71 166.467 282.156 166.467C282.694 166.467 283.168 166.558 283.578 166.74C283.993 166.923 284.316 167.198 284.549 167.567C284.786 167.932 284.904 168.39 284.904 168.941V172.387C284.904 172.633 284.925 172.895 284.966 173.173C285.011 173.451 285.077 173.69 285.164 173.891V174H283.845C283.781 173.854 283.731 173.66 283.694 173.419C283.658 173.173 283.64 172.945 283.64 172.735ZM283.858 169.516L283.872 170.404H282.594C282.234 170.404 281.912 170.434 281.63 170.493C281.347 170.548 281.11 170.632 280.919 170.746C280.728 170.86 280.582 171.004 280.481 171.177C280.381 171.345 280.331 171.544 280.331 171.771C280.331 172.004 280.383 172.216 280.488 172.407C280.593 172.599 280.75 172.751 280.96 172.865C281.174 172.975 281.436 173.029 281.746 173.029C282.133 173.029 282.475 172.947 282.771 172.783C283.068 172.619 283.302 172.419 283.476 172.182C283.653 171.945 283.749 171.715 283.763 171.491L284.303 172.1C284.271 172.291 284.184 172.503 284.043 172.735C283.902 172.968 283.713 173.191 283.476 173.405C283.243 173.615 282.965 173.79 282.642 173.932C282.323 174.068 281.963 174.137 281.562 174.137C281.06 174.137 280.62 174.039 280.242 173.843C279.868 173.647 279.577 173.385 279.367 173.057C279.162 172.724 279.06 172.353 279.06 171.942C279.06 171.546 279.137 171.197 279.292 170.896C279.447 170.591 279.67 170.338 279.962 170.138C280.254 169.933 280.604 169.778 281.015 169.673C281.425 169.568 281.883 169.516 282.389 169.516H283.858ZM288.408 167.766V174H287.144V166.604H288.374L288.408 167.766ZM290.719 166.562L290.712 167.738C290.607 167.715 290.507 167.702 290.411 167.697C290.32 167.688 290.215 167.684 290.097 167.684C289.805 167.684 289.548 167.729 289.324 167.82C289.101 167.911 288.912 168.039 288.757 168.203C288.602 168.367 288.479 168.563 288.388 168.791C288.301 169.014 288.244 169.26 288.217 169.529L287.861 169.734C287.861 169.288 287.905 168.868 287.991 168.477C288.082 168.085 288.221 167.738 288.408 167.438C288.595 167.132 288.832 166.895 289.119 166.727C289.411 166.553 289.757 166.467 290.158 166.467C290.249 166.467 290.354 166.478 290.473 166.501C290.591 166.519 290.673 166.54 290.719 166.562ZM295.07 174.137C294.555 174.137 294.088 174.05 293.669 173.877C293.254 173.699 292.896 173.451 292.596 173.132C292.299 172.813 292.072 172.435 291.912 171.997C291.753 171.56 291.673 171.081 291.673 170.562V170.274C291.673 169.673 291.762 169.137 291.939 168.668C292.117 168.194 292.359 167.793 292.664 167.465C292.969 167.137 293.316 166.888 293.703 166.72C294.09 166.551 294.492 166.467 294.906 166.467C295.435 166.467 295.891 166.558 296.273 166.74C296.661 166.923 296.978 167.178 297.224 167.506C297.47 167.829 297.652 168.212 297.771 168.654C297.889 169.092 297.948 169.57 297.948 170.09V170.657H292.425V169.625H296.684V169.529C296.665 169.201 296.597 168.882 296.479 168.572C296.365 168.262 296.182 168.007 295.932 167.807C295.681 167.606 295.339 167.506 294.906 167.506C294.619 167.506 294.355 167.567 294.113 167.69C293.872 167.809 293.664 167.987 293.491 168.224C293.318 168.461 293.184 168.75 293.088 169.092C292.992 169.434 292.944 169.828 292.944 170.274V170.562C292.944 170.912 292.992 171.243 293.088 171.553C293.188 171.858 293.332 172.127 293.519 172.359C293.71 172.592 293.94 172.774 294.209 172.906C294.482 173.038 294.792 173.104 295.139 173.104C295.585 173.104 295.964 173.013 296.273 172.831C296.583 172.649 296.854 172.405 297.087 172.1L297.853 172.708C297.693 172.95 297.49 173.18 297.244 173.398C296.998 173.617 296.695 173.795 296.335 173.932C295.979 174.068 295.558 174.137 295.07 174.137ZM303.981 172.038C303.981 171.856 303.94 171.687 303.858 171.532C303.781 171.373 303.619 171.229 303.373 171.102C303.132 170.969 302.767 170.855 302.279 170.76C301.869 170.673 301.498 170.571 301.165 170.452C300.837 170.334 300.557 170.19 300.324 170.021C300.096 169.853 299.921 169.655 299.798 169.427C299.675 169.199 299.613 168.932 299.613 168.627C299.613 168.335 299.677 168.06 299.805 167.8C299.937 167.54 300.121 167.31 300.358 167.109C300.6 166.909 300.889 166.752 301.227 166.638C301.564 166.524 301.94 166.467 302.354 166.467C302.947 166.467 303.453 166.572 303.872 166.781C304.291 166.991 304.613 167.271 304.836 167.622C305.059 167.968 305.171 168.354 305.171 168.777H303.906C303.906 168.572 303.845 168.374 303.722 168.183C303.603 167.987 303.428 167.825 303.195 167.697C302.967 167.57 302.687 167.506 302.354 167.506C302.004 167.506 301.719 167.561 301.5 167.67C301.286 167.775 301.129 167.909 301.028 168.073C300.933 168.237 300.885 168.41 300.885 168.593C300.885 168.729 300.908 168.853 300.953 168.962C301.003 169.067 301.09 169.165 301.213 169.256C301.336 169.342 301.509 169.424 301.732 169.502C301.956 169.579 302.241 169.657 302.587 169.734C303.193 169.871 303.692 170.035 304.084 170.227C304.476 170.418 304.768 170.653 304.959 170.931C305.15 171.209 305.246 171.546 305.246 171.942C305.246 172.266 305.178 172.562 305.041 172.831C304.909 173.1 304.715 173.332 304.46 173.528C304.209 173.72 303.909 173.87 303.558 173.979C303.211 174.084 302.822 174.137 302.389 174.137C301.737 174.137 301.186 174.021 300.734 173.788C300.283 173.556 299.941 173.255 299.709 172.886C299.477 172.517 299.36 172.127 299.36 171.717H300.632C300.65 172.063 300.75 172.339 300.933 172.544C301.115 172.744 301.338 172.888 301.603 172.975C301.867 173.057 302.129 173.098 302.389 173.098C302.735 173.098 303.024 173.052 303.257 172.961C303.494 172.87 303.674 172.744 303.797 172.585C303.92 172.425 303.981 172.243 303.981 172.038ZM315.542 172.564V163.5H316.813V174H315.651L315.542 172.564ZM310.565 170.384V170.24C310.565 169.675 310.634 169.162 310.771 168.702C310.912 168.237 311.11 167.839 311.365 167.506C311.625 167.173 311.933 166.918 312.288 166.74C312.648 166.558 313.049 166.467 313.491 166.467C313.956 166.467 314.362 166.549 314.708 166.713C315.059 166.872 315.355 167.107 315.597 167.417C315.843 167.722 316.036 168.091 316.178 168.524C316.319 168.957 316.417 169.447 316.472 169.994V170.623C316.422 171.165 316.324 171.653 316.178 172.086C316.036 172.519 315.843 172.888 315.597 173.193C315.355 173.499 315.059 173.733 314.708 173.897C314.357 174.057 313.947 174.137 313.478 174.137C313.045 174.137 312.648 174.043 312.288 173.856C311.933 173.67 311.625 173.408 311.365 173.07C311.11 172.733 310.912 172.337 310.771 171.881C310.634 171.421 310.565 170.922 310.565 170.384ZM311.837 170.24V170.384C311.837 170.753 311.873 171.099 311.946 171.423C312.024 171.746 312.142 172.031 312.302 172.277C312.461 172.523 312.664 172.717 312.91 172.858C313.156 172.995 313.45 173.063 313.792 173.063C314.211 173.063 314.555 172.975 314.824 172.797C315.098 172.619 315.316 172.384 315.48 172.093C315.645 171.801 315.772 171.484 315.863 171.143V169.495C315.809 169.244 315.729 169.003 315.624 168.771C315.524 168.534 315.392 168.324 315.228 168.142C315.068 167.955 314.87 167.807 314.633 167.697C314.4 167.588 314.125 167.533 313.806 167.533C313.459 167.533 313.161 167.606 312.91 167.752C312.664 167.893 312.461 168.089 312.302 168.34C312.142 168.586 312.024 168.873 311.946 169.201C311.873 169.525 311.837 169.871 311.837 170.24ZM322.102 174.137C321.587 174.137 321.119 174.05 320.7 173.877C320.285 173.699 319.928 173.451 319.627 173.132C319.331 172.813 319.103 172.435 318.943 171.997C318.784 171.56 318.704 171.081 318.704 170.562V170.274C318.704 169.673 318.793 169.137 318.971 168.668C319.148 168.194 319.39 167.793 319.695 167.465C320.001 167.137 320.347 166.888 320.734 166.72C321.122 166.551 321.523 166.467 321.938 166.467C322.466 166.467 322.922 166.558 323.305 166.74C323.692 166.923 324.009 167.178 324.255 167.506C324.501 167.829 324.683 168.212 324.802 168.654C324.92 169.092 324.979 169.57 324.979 170.09V170.657H319.456V169.625H323.715V169.529C323.697 169.201 323.628 168.882 323.51 168.572C323.396 168.262 323.214 168.007 322.963 167.807C322.712 167.606 322.37 167.506 321.938 167.506C321.65 167.506 321.386 167.567 321.145 167.69C320.903 167.809 320.696 167.987 320.522 168.224C320.349 168.461 320.215 168.75 320.119 169.092C320.023 169.434 319.976 169.828 319.976 170.274V170.562C319.976 170.912 320.023 171.243 320.119 171.553C320.219 171.858 320.363 172.127 320.55 172.359C320.741 172.592 320.971 172.774 321.24 172.906C321.514 173.038 321.824 173.104 322.17 173.104C322.617 173.104 322.995 173.013 323.305 172.831C323.615 172.649 323.886 172.405 324.118 172.1L324.884 172.708C324.724 172.95 324.521 173.18 324.275 173.398C324.029 173.617 323.726 173.795 323.366 173.932C323.011 174.068 322.589 174.137 322.102 174.137ZM62.2285 182.025V190.844H60.957V180.604H62.1191L62.2285 182.025ZM67.2119 184.24V184.384C67.2119 184.922 67.1481 185.421 67.0205 185.881C66.8929 186.337 66.7061 186.733 66.46 187.07C66.2184 187.408 65.9199 187.67 65.5645 187.856C65.209 188.043 64.8011 188.137 64.3408 188.137C63.8714 188.137 63.4567 188.059 63.0967 187.904C62.7367 187.749 62.4313 187.524 62.1807 187.228C61.93 186.931 61.7295 186.576 61.5791 186.161C61.4333 185.746 61.333 185.279 61.2783 184.76V183.994C61.333 183.447 61.4355 182.957 61.5859 182.524C61.7363 182.091 61.9346 181.722 62.1807 181.417C62.4313 181.107 62.7344 180.872 63.0898 180.713C63.4453 180.549 63.8555 180.467 64.3203 180.467C64.7852 180.467 65.1976 180.558 65.5576 180.74C65.9176 180.918 66.2207 181.173 66.4668 181.506C66.7129 181.839 66.8975 182.237 67.0205 182.702C67.1481 183.162 67.2119 183.675 67.2119 184.24ZM65.9404 184.384V184.24C65.9404 183.871 65.9017 183.525 65.8242 183.201C65.7467 182.873 65.626 182.586 65.4619 182.34C65.3024 182.089 65.0973 181.893 64.8467 181.752C64.596 181.606 64.2975 181.533 63.9512 181.533C63.6322 181.533 63.3542 181.588 63.1172 181.697C62.8848 181.807 62.6865 181.955 62.5225 182.142C62.3584 182.324 62.224 182.534 62.1191 182.771C62.0189 183.003 61.9437 183.244 61.8936 183.495V185.266C61.9847 185.585 62.1123 185.885 62.2764 186.168C62.4404 186.446 62.6592 186.672 62.9326 186.845C63.2061 187.013 63.5501 187.098 63.9648 187.098C64.3066 187.098 64.6006 187.027 64.8467 186.886C65.0973 186.74 65.3024 186.542 65.4619 186.291C65.626 186.04 65.7467 185.753 65.8242 185.43C65.9017 185.102 65.9404 184.753 65.9404 184.384ZM72.1445 188.137C71.6296 188.137 71.1624 188.05 70.7432 187.877C70.3285 187.699 69.9707 187.451 69.6699 187.132C69.3737 186.813 69.1458 186.435 68.9863 185.997C68.8268 185.56 68.7471 185.081 68.7471 184.562V184.274C68.7471 183.673 68.8359 183.137 69.0137 182.668C69.1914 182.194 69.4329 181.793 69.7383 181.465C70.0436 181.137 70.39 180.888 70.7773 180.72C71.1647 180.551 71.5658 180.467 71.9805 180.467C72.5091 180.467 72.9648 180.558 73.3477 180.74C73.735 180.923 74.0518 181.178 74.2979 181.506C74.5439 181.829 74.7262 182.212 74.8447 182.654C74.9632 183.092 75.0225 183.57 75.0225 184.09V184.657H69.499V183.625H73.7578V183.529C73.7396 183.201 73.6712 182.882 73.5527 182.572C73.4388 182.262 73.2565 182.007 73.0059 181.807C72.7552 181.606 72.4134 181.506 71.9805 181.506C71.6934 181.506 71.429 181.567 71.1875 181.69C70.946 181.809 70.7386 181.987 70.5654 182.224C70.3923 182.461 70.2578 182.75 70.1621 183.092C70.0664 183.434 70.0186 183.828 70.0186 184.274V184.562C70.0186 184.912 70.0664 185.243 70.1621 185.553C70.2624 185.858 70.4059 186.127 70.5928 186.359C70.7842 186.592 71.0143 186.774 71.2832 186.906C71.5566 187.038 71.8665 187.104 72.2129 187.104C72.6595 187.104 73.0378 187.013 73.3477 186.831C73.6576 186.649 73.9287 186.405 74.1611 186.1L74.9268 186.708C74.7673 186.95 74.5645 187.18 74.3184 187.398C74.0723 187.617 73.7692 187.795 73.4092 187.932C73.0537 188.068 72.6322 188.137 72.1445 188.137ZM81.0557 186.038C81.0557 185.856 81.0146 185.687 80.9326 185.532C80.8551 185.373 80.6934 185.229 80.4473 185.102C80.2057 184.969 79.8411 184.855 79.3535 184.76C78.9434 184.673 78.5719 184.571 78.2393 184.452C77.9111 184.334 77.6309 184.19 77.3984 184.021C77.1706 183.853 76.9951 183.655 76.8721 183.427C76.749 183.199 76.6875 182.932 76.6875 182.627C76.6875 182.335 76.7513 182.06 76.8789 181.8C77.0111 181.54 77.1956 181.31 77.4326 181.109C77.6742 180.909 77.9635 180.752 78.3008 180.638C78.638 180.524 79.014 180.467 79.4287 180.467C80.0212 180.467 80.527 180.572 80.9463 180.781C81.3656 180.991 81.6868 181.271 81.9102 181.622C82.1335 181.968 82.2451 182.354 82.2451 182.777H80.9805C80.9805 182.572 80.9189 182.374 80.7959 182.183C80.6774 181.987 80.502 181.825 80.2695 181.697C80.0417 181.57 79.7614 181.506 79.4287 181.506C79.0778 181.506 78.793 181.561 78.5742 181.67C78.36 181.775 78.2028 181.909 78.1025 182.073C78.0068 182.237 77.959 182.41 77.959 182.593C77.959 182.729 77.9818 182.853 78.0273 182.962C78.0775 183.067 78.1641 183.165 78.2871 183.256C78.4102 183.342 78.5833 183.424 78.8066 183.502C79.0299 183.579 79.3148 183.657 79.6611 183.734C80.2673 183.871 80.7663 184.035 81.1582 184.227C81.5501 184.418 81.8418 184.653 82.0332 184.931C82.2246 185.209 82.3203 185.546 82.3203 185.942C82.3203 186.266 82.252 186.562 82.1152 186.831C81.9831 187.1 81.7894 187.332 81.5342 187.528C81.2835 187.72 80.9827 187.87 80.6318 187.979C80.2855 188.084 79.8958 188.137 79.4629 188.137C78.8112 188.137 78.2598 188.021 77.8086 187.788C77.3574 187.556 77.0156 187.255 76.7832 186.886C76.5508 186.517 76.4346 186.127 76.4346 185.717H77.7061C77.7243 186.063 77.8245 186.339 78.0068 186.544C78.1891 186.744 78.4124 186.888 78.6768 186.975C78.9411 187.057 79.2031 187.098 79.4629 187.098C79.8092 187.098 80.0986 187.052 80.3311 186.961C80.568 186.87 80.748 186.744 80.8711 186.585C80.9941 186.425 81.0557 186.243 81.0557 186.038ZM88.5381 186.038C88.5381 185.856 88.4971 185.687 88.415 185.532C88.3376 185.373 88.1758 185.229 87.9297 185.102C87.6882 184.969 87.3236 184.855 86.8359 184.76C86.4258 184.673 86.0544 184.571 85.7217 184.452C85.3936 184.334 85.1133 184.19 84.8809 184.021C84.653 183.853 84.4775 183.655 84.3545 183.427C84.2314 183.199 84.1699 182.932 84.1699 182.627C84.1699 182.335 84.2337 182.06 84.3613 181.8C84.4935 181.54 84.6781 181.31 84.915 181.109C85.1566 180.909 85.446 180.752 85.7832 180.638C86.1204 180.524 86.4964 180.467 86.9111 180.467C87.5036 180.467 88.0094 180.572 88.4287 180.781C88.848 180.991 89.1693 181.271 89.3926 181.622C89.6159 181.968 89.7275 182.354 89.7275 182.777H88.4629C88.4629 182.572 88.4014 182.374 88.2783 182.183C88.1598 181.987 87.9844 181.825 87.752 181.697C87.5241 181.57 87.2438 181.506 86.9111 181.506C86.5602 181.506 86.2754 181.561 86.0566 181.67C85.8424 181.775 85.6852 181.909 85.585 182.073C85.4893 182.237 85.4414 182.41 85.4414 182.593C85.4414 182.729 85.4642 182.853 85.5098 182.962C85.5599 183.067 85.6465 183.165 85.7695 183.256C85.8926 183.342 86.0658 183.424 86.2891 183.502C86.5124 183.579 86.7972 183.657 87.1436 183.734C87.7497 183.871 88.2487 184.035 88.6406 184.227C89.0326 184.418 89.3242 184.653 89.5156 184.931C89.707 185.209 89.8027 185.546 89.8027 185.942C89.8027 186.266 89.7344 186.562 89.5977 186.831C89.4655 187.1 89.2718 187.332 89.0166 187.528C88.766 187.72 88.4652 187.87 88.1143 187.979C87.7679 188.084 87.3783 188.137 86.9453 188.137C86.2936 188.137 85.7422 188.021 85.291 187.788C84.8398 187.556 84.498 187.255 84.2656 186.886C84.0332 186.517 83.917 186.127 83.917 185.717H85.1885C85.2067 186.063 85.307 186.339 85.4893 186.544C85.6715 186.744 85.8949 186.888 86.1592 186.975C86.4235 187.057 86.6855 187.098 86.9453 187.098C87.2917 187.098 87.5811 187.052 87.8135 186.961C88.0505 186.87 88.2305 186.744 88.3535 186.585C88.4766 186.425 88.5381 186.243 88.5381 186.038ZM91.3789 184.384V184.227C91.3789 183.693 91.4564 183.199 91.6113 182.743C91.7663 182.283 91.9896 181.884 92.2812 181.547C92.5729 181.205 92.9261 180.941 93.3408 180.754C93.7555 180.562 94.2204 180.467 94.7354 180.467C95.2549 180.467 95.722 180.562 96.1367 180.754C96.556 180.941 96.9115 181.205 97.2031 181.547C97.4993 181.884 97.7249 182.283 97.8799 182.743C98.0348 183.199 98.1123 183.693 98.1123 184.227V184.384C98.1123 184.917 98.0348 185.411 97.8799 185.867C97.7249 186.323 97.4993 186.722 97.2031 187.063C96.9115 187.401 96.5583 187.665 96.1436 187.856C95.7334 188.043 95.2686 188.137 94.749 188.137C94.2295 188.137 93.7624 188.043 93.3477 187.856C92.9329 187.665 92.5775 187.401 92.2812 187.063C91.9896 186.722 91.7663 186.323 91.6113 185.867C91.4564 185.411 91.3789 184.917 91.3789 184.384ZM92.6436 184.227V184.384C92.6436 184.753 92.6868 185.102 92.7734 185.43C92.86 185.753 92.9899 186.04 93.1631 186.291C93.3408 186.542 93.5618 186.74 93.8262 186.886C94.0905 187.027 94.3981 187.098 94.749 187.098C95.0954 187.098 95.3984 187.027 95.6582 186.886C95.9225 186.74 96.1413 186.542 96.3145 186.291C96.4876 186.04 96.6175 185.753 96.7041 185.43C96.7952 185.102 96.8408 184.753 96.8408 184.384V184.227C96.8408 183.862 96.7952 183.518 96.7041 183.194C96.6175 182.866 96.4854 182.577 96.3076 182.326C96.1344 182.071 95.9157 181.87 95.6514 181.725C95.3916 181.579 95.0863 181.506 94.7354 181.506C94.389 181.506 94.0837 181.579 93.8193 181.725C93.5596 181.87 93.3408 182.071 93.1631 182.326C92.9899 182.577 92.86 182.866 92.7734 183.194C92.6868 183.518 92.6436 183.862 92.6436 184.227ZM104.31 186.735V182.928C104.31 182.636 104.25 182.383 104.132 182.169C104.018 181.95 103.845 181.782 103.612 181.663C103.38 181.545 103.093 181.485 102.751 181.485C102.432 181.485 102.152 181.54 101.91 181.649C101.673 181.759 101.486 181.902 101.35 182.08C101.217 182.258 101.151 182.449 101.151 182.654H99.8867C99.8867 182.39 99.9551 182.128 100.092 181.868C100.229 181.608 100.424 181.374 100.68 181.164C100.939 180.95 101.249 180.781 101.609 180.658C101.974 180.531 102.38 180.467 102.826 180.467C103.364 180.467 103.838 180.558 104.248 180.74C104.663 180.923 104.986 181.198 105.219 181.567C105.456 181.932 105.574 182.39 105.574 182.941V186.387C105.574 186.633 105.595 186.895 105.636 187.173C105.681 187.451 105.747 187.69 105.834 187.891V188H104.515C104.451 187.854 104.401 187.66 104.364 187.419C104.328 187.173 104.31 186.945 104.31 186.735ZM104.528 183.516L104.542 184.404H103.264C102.904 184.404 102.582 184.434 102.3 184.493C102.017 184.548 101.78 184.632 101.589 184.746C101.397 184.86 101.252 185.004 101.151 185.177C101.051 185.345 101.001 185.544 101.001 185.771C101.001 186.004 101.053 186.216 101.158 186.407C101.263 186.599 101.42 186.751 101.63 186.865C101.844 186.975 102.106 187.029 102.416 187.029C102.803 187.029 103.145 186.947 103.441 186.783C103.738 186.619 103.972 186.419 104.146 186.182C104.323 185.945 104.419 185.715 104.433 185.491L104.973 186.1C104.941 186.291 104.854 186.503 104.713 186.735C104.572 186.968 104.382 187.191 104.146 187.405C103.913 187.615 103.635 187.79 103.312 187.932C102.993 188.068 102.632 188.137 102.231 188.137C101.73 188.137 101.29 188.039 100.912 187.843C100.538 187.647 100.247 187.385 100.037 187.057C99.832 186.724 99.7295 186.353 99.7295 185.942C99.7295 185.546 99.807 185.197 99.9619 184.896C100.117 184.591 100.34 184.338 100.632 184.138C100.924 183.933 101.274 183.778 101.685 183.673C102.095 183.568 102.553 183.516 103.059 183.516H104.528ZM112.12 186.038C112.12 185.856 112.079 185.687 111.997 185.532C111.92 185.373 111.758 185.229 111.512 185.102C111.27 184.969 110.906 184.855 110.418 184.76C110.008 184.673 109.636 184.571 109.304 184.452C108.976 184.334 108.695 184.19 108.463 184.021C108.235 183.853 108.06 183.655 107.937 183.427C107.813 183.199 107.752 182.932 107.752 182.627C107.752 182.335 107.816 182.06 107.943 181.8C108.076 181.54 108.26 181.31 108.497 181.109C108.739 180.909 109.028 180.752 109.365 180.638C109.702 180.524 110.078 180.467 110.493 180.467C111.086 180.467 111.591 180.572 112.011 180.781C112.43 180.991 112.751 181.271 112.975 181.622C113.198 181.968 113.31 182.354 113.31 182.777H112.045C112.045 182.572 111.983 182.374 111.86 182.183C111.742 181.987 111.566 181.825 111.334 181.697C111.106 181.57 110.826 181.506 110.493 181.506C110.142 181.506 109.857 181.561 109.639 181.67C109.424 181.775 109.267 181.909 109.167 182.073C109.071 182.237 109.023 182.41 109.023 182.593C109.023 182.729 109.046 182.853 109.092 182.962C109.142 183.067 109.229 183.165 109.352 183.256C109.475 183.342 109.648 183.424 109.871 183.502C110.094 183.579 110.379 183.657 110.726 183.734C111.332 183.871 111.831 184.035 112.223 184.227C112.615 184.418 112.906 184.653 113.098 184.931C113.289 185.209 113.385 185.546 113.385 185.942C113.385 186.266 113.316 186.562 113.18 186.831C113.048 187.1 112.854 187.332 112.599 187.528C112.348 187.72 112.047 187.87 111.696 187.979C111.35 188.084 110.96 188.137 110.527 188.137C109.876 188.137 109.324 188.021 108.873 187.788C108.422 187.556 108.08 187.255 107.848 186.886C107.615 186.517 107.499 186.127 107.499 185.717H108.771C108.789 186.063 108.889 186.339 109.071 186.544C109.254 186.744 109.477 186.888 109.741 186.975C110.006 187.057 110.268 187.098 110.527 187.098C110.874 187.098 111.163 187.052 111.396 186.961C111.632 186.87 111.812 186.744 111.936 186.585C112.059 186.425 112.12 186.243 112.12 186.038Z" fill="#303133"/>
<g clip-path="url(#clip0_529_9745)">
<path d="M214.166 98.6663V75.6663C214.166 73.558 212.441 71.833 210.333 71.833H187.333C185.225 71.833 183.5 73.558 183.5 75.6663V98.6663C183.5 100.775 185.225 102.5 187.333 102.5H210.333C212.441 102.5 214.166 100.775 214.166 98.6663ZM193.083 90.9997L196.974 96.1938L202.666 89.083L210.333 98.6663H187.333L193.083 90.9997ZM175.833 79.4997V106.333C175.833 108.441 177.558 110.166 179.666 110.166H206.5V106.333H179.666V79.4997H175.833Z" fill="#323232"/>
</g>
<defs>
<clipPath id="clip0_529_9745">
<rect width="46" height="46" fill="white" transform="translate(172 68)"/>
</clipPath>
</defs>
</svg>
